<?xml version="1.0" encoding="UTF-8" standalone="no"?>
<!-- Created with Inkscape (http://www.inkscape.org/) -->

<svg
   xmlns:svg="http://www.w3.org/2000/svg"
   xmlns="http://www.w3.org/2000/svg"
   xmlns:xlink="http://www.w3.org/1999/xlink"
   version="1.0"
   width="128"
   height="128"
   id="svg2">
  <defs
     id="defs4">
    <linearGradient
       id="linearGradient3227">
      <stop
         id="stop3229"
         style="stop-color:#000000;stop-opacity:1"
         offset="0" />
      <stop
         id="stop3231"
         style="stop-color:#000000;stop-opacity:0"
         offset="1" />
    </linearGradient>
    <linearGradient
       id="linearGradient3207">
      <stop
         id="stop3209"
         style="stop-color:#ffffff;stop-opacity:0.47999999"
         offset="0" />
      <stop
         id="stop3211"
         style="stop-color:#ffffff;stop-opacity:0"
         offset="1" />
    </linearGradient>
    <linearGradient
       id="linearGradient3195">
      <stop
         id="stop3197"
         style="stop-color:#d3d3d3;stop-opacity:1"
         offset="0" />
      <stop
         id="stop3199"
         style="stop-color:#d3d3d3;stop-opacity:0"
         offset="1" />
    </linearGradient>
    <linearGradient
       id="linearGradient3159">
      <stop
         id="stop3161"
         style="stop-color:#ffffff;stop-opacity:1"
         offset="0" />
      <stop
         id="stop3163"
         style="stop-color:#ffffff;stop-opacity:0"
         offset="1" />
    </linearGradient>
    <linearGradient
       id="linearGradient2974">
      <stop
         id="stop2976"
         style="stop-color:#ffffff;stop-opacity:1"
         offset="0" />
      <stop
         id="stop2978"
         style="stop-color:#ffffff;stop-opacity:0"
         offset="1" />
    </linearGradient>
    <linearGradient
       x1="-88.058083"
       y1="-131.93112"
       x2="-45.096584"
       y2="-131.93112"
       id="linearGradient1980"
       xlink:href="#linearGradient3711"
       gradientUnits="userSpaceOnUse"
       gradientTransform="matrix(0,1.022977,-1.022977,0,111.9686,137.8125)" />
    <radialGradient
       cx="343.99899"
       cy="92"
       r="36"
       fx="343.99899"
       fy="92"
       id="radialGradient1978"
       xlink:href="#linearGradient3711"
       gradientUnits="userSpaceOnUse" />
    <linearGradient
       x1="-70.002899"
       y1="-383.9971"
       x2="-11.91648"
       y2="-383.9971"
       id="linearGradient1976"
       xlink:href="#linearGradient26907"
       gradientUnits="userSpaceOnUse"
       gradientTransform="matrix(0,1,-1,0,-39.9985,140.0029)" />
    <radialGradient
       cx="63.912209"
       cy="115.70919"
       r="63.912209"
       fx="63.975182"
       fy="116.88514"
       id="radialGradient3743"
       xlink:href="#linearGradient3291"
       gradientUnits="userSpaceOnUse"
       gradientTransform="matrix(1,0,0,0.197802,0,92.82166)" />
    <linearGradient
       id="linearGradient3291">
      <stop
         id="stop3293"
         style="stop-color:#000000;stop-opacity:1"
         offset="0" />
      <stop
         id="stop3295"
         style="stop-color:#000000;stop-opacity:0"
         offset="1" />
    </linearGradient>
    <linearGradient
       x1="-84.002403"
       y1="-383.9971"
       x2="-23.516129"
       y2="-383.9975"
       id="linearGradient3711"
       gradientUnits="userSpaceOnUse"
       gradientTransform="matrix(0,1,-1,0,-39.9985,140.0029)">
      <stop
         id="stop3713"
         style="stop-color:#ffffff;stop-opacity:1"
         offset="0" />
      <stop
         id="stop3715"
         style="stop-color:#ffffff;stop-opacity:0"
         offset="1" />
    </linearGradient>
    <linearGradient
       x1="-84.002403"
       y1="-383.9971"
       x2="-12.0029"
       y2="-383.9971"
       id="linearGradient26907"
       gradientUnits="userSpaceOnUse"
       gradientTransform="matrix(0,1,-1,0,-39.9985,140.0029)">
      <stop
         id="stop26909"
         style="stop-color:#888a85;stop-opacity:1"
         offset="0" />
      <stop
         id="stop26911"
         style="stop-color:#000000;stop-opacity:1"
         offset="1" />
    </linearGradient>
    <radialGradient
       cx="63.912209"
       cy="115.70919"
       r="63.912209"
       fx="63.912209"
       fy="115.7093"
       id="radialGradient3297"
       xlink:href="#linearGradient3291"
       gradientUnits="userSpaceOnUse"
       gradientTransform="matrix(1,0,0,0.197802,0,92.82166)" />
    <linearGradient
       id="linearGradient2871">
      <stop
         id="stop2873"
         style="stop-color:#ffffff;stop-opacity:1"
         offset="0" />
      <stop
         id="stop2875"
         style="stop-color:#ffffff;stop-opacity:0"
         offset="1" />
    </linearGradient>
    <linearGradient
       id="linearGradient2898">
      <stop
         id="stop2900"
         style="stop-color:#2c72c7;stop-opacity:1"
         offset="0" />
      <stop
         id="stop2902"
         style="stop-color:#2c72c7;stop-opacity:0"
         offset="1" />
    </linearGradient>
    <radialGradient
       cx="63.249104"
       cy="29.640472"
       r="58.621284"
       fx="63.249104"
       fy="29.640472"
       id="radialGradient2505"
       xlink:href="#linearGradient2898"
       gradientUnits="userSpaceOnUse"
       gradientTransform="matrix(-1.113341,0,0,0.899421,144.15267,184.75423)" />
    <radialGradient
       cx="63.249104"
       cy="29.640472"
       r="58.621284"
       fx="63.249104"
       fy="29.640472"
       id="radialGradient2508"
       xlink:href="#linearGradient2898"
       gradientUnits="userSpaceOnUse"
       gradientTransform="matrix(-1.113341,0,0,0.899421,144.15267,184.75423)" />
    <radialGradient
       cx="63.249104"
       cy="29.640472"
       r="58.621284"
       fx="63.249104"
       fy="29.640472"
       id="radialGradient2511"
       xlink:href="#linearGradient2898"
       gradientUnits="userSpaceOnUse"
       gradientTransform="matrix(-1.113341,0,0,0.899421,144.15267,184.75423)" />
    <radialGradient
       cx="63.249104"
       cy="29.640472"
       r="58.621284"
       fx="63.249104"
       fy="29.640472"
       id="radialGradient2514"
       xlink:href="#linearGradient2898"
       gradientUnits="userSpaceOnUse"
       gradientTransform="matrix(-1.113341,0,0,0.899421,144.15267,184.75423)" />
    <linearGradient
       x1="50.389755"
       y1="6.6258311"
       x2="50.389755"
       y2="56.132732"
       id="linearGradient2518"
       xlink:href="#linearGradient2871"
       gradientUnits="userSpaceOnUse"
       gradientTransform="matrix(-0.908626,0,0,0.908626,131.38537,118.41482)" />
    <linearGradient
       x1="50.78854"
       y1="-22.328487"
       x2="52.001846"
       y2="98.047089"
       id="linearGradient2521"
       xlink:href="#linearGradient2871"
       gradientUnits="userSpaceOnUse"
       gradientTransform="matrix(-0.908626,0,0,0.908626,131.38537,118.41482)" />
    <linearGradient
       x1="-88.058083"
       y1="-131.93112"
       x2="-45.096584"
       y2="-131.93112"
       id="linearGradient2524"
       xlink:href="#linearGradient3711"
       gradientUnits="userSpaceOnUse"
       gradientTransform="matrix(0,1.022977,-1.022977,0,118.90977,143.61542)" />
    <linearGradient
       x1="58.714989"
       y1="23.999331"
       x2="58.714989"
       y2="69.301285"
       id="linearGradient3502"
       xlink:href="#linearGradient3711"
       gradientUnits="userSpaceOnUse"
       gradientTransform="matrix(0.8571429,0,0,0.8571429,9.1428571,9.150686)" />
    <linearGradient
       x1="-88.058083"
       y1="-131.93112"
       x2="-45.096584"
       y2="-131.93112"
       id="linearGradient3505"
       xlink:href="#linearGradient3711"
       gradientUnits="userSpaceOnUse"
       gradientTransform="matrix(0,1.591298,-1.591298,0,-12.882452,195.15999)" />
    <linearGradient
       x1="72"
       y1="-16"
       x2="72"
       y2="64"
       id="linearGradient2963"
       xlink:href="#linearGradient26907"
       gradientUnits="userSpaceOnUse"
       gradientTransform="matrix(-1,0,0,1,127.99347,0)" />
    <radialGradient
       cx="79.339813"
       cy="114.95621"
       r="56"
       fx="79.339813"
       fy="114.95621"
       id="radialGradient2965"
       xlink:href="#linearGradient26907"
       gradientUnits="userSpaceOnUse"
       gradientTransform="matrix(-1,-3.8781302e-8,-2.0820407e-8,0.5714285,127.33328,38.310745)" />
    <linearGradient
       x1="181"
       y1="-32"
       x2="205"
       y2="88"
       id="linearGradient2980"
       xlink:href="#linearGradient2974"
       gradientUnits="userSpaceOnUse"
       gradientTransform="matrix(-1,0,0,1,252.99347,0)" />
    <filter
       color-interpolation-filters="sRGB"
       id="filter3550">
      <feGaussianBlur
         stdDeviation="1.23375"
         id="feGaussianBlur3552" />
    </filter>
    <linearGradient
       id="linearGradient3166">
      <stop
         id="stop3168"
         style="stop-color:#e20800;stop-opacity:1"
         offset="0" />
      <stop
         id="stop3564"
         style="stop-color:#d80500;stop-opacity:1"
         offset="0.48148149" />
      <stop
         id="stop3170"
         style="stop-color:#590000;stop-opacity:1"
         offset="1" />
    </linearGradient>
    <linearGradient
       id="linearGradient3554">
      <stop
         id="stop3556"
         style="stop-color:#ffffff;stop-opacity:1"
         offset="0" />
      <stop
         id="stop3558"
         style="stop-color:#dfdfdf;stop-opacity:1"
         offset="1" />
    </linearGradient>
    <linearGradient
       x1="68.9375"
       y1="38.90625"
       x2="68.9375"
       y2="103.40701"
       id="linearGradient3124"
       xlink:href="#linearGradient3554"
       gradientUnits="userSpaceOnUse"
       gradientTransform="matrix(-1,0,0,1,114.56528,2.3017641)" />
    <radialGradient
       cx="62.78125"
       cy="66.175667"
       r="29.84375"
       fx="62.78125"
       fy="66.175667"
       id="radialGradient3133"
       xlink:href="#linearGradient3207"
       gradientUnits="userSpaceOnUse"
       gradientTransform="matrix(1.3513697,0,0,1.3513697,-8.6312401,-20.634014)" />
    <linearGradient
       x1="80"
       y1="68"
       x2="72"
       y2="44"
       id="linearGradient3165"
       xlink:href="#linearGradient3159"
       gradientUnits="userSpaceOnUse"
       gradientTransform="matrix(-1,0,0,1,127.99347,0)" />
    <linearGradient
       x1="185.04645"
       y1="-8"
       x2="205"
       y2="88"
       id="linearGradient3189"
       xlink:href="#linearGradient2974"
       gradientUnits="userSpaceOnUse"
       gradientTransform="matrix(-1,0,0,1,253.03992,0)" />
    <linearGradient
       x1="270.03271"
       y1="95"
       x2="142.0327"
       y2="31"
       id="linearGradient3191"
       xlink:href="#linearGradient2974"
       gradientUnits="userSpaceOnUse"
       gradientTransform="matrix(-1,0,0,1,253.05565,0)" />
    <linearGradient
       x1="72"
       y1="108"
       x2="72"
       y2="60"
       id="linearGradient3201"
       xlink:href="#linearGradient3195"
       gradientUnits="userSpaceOnUse" />
    <filter
       color-interpolation-filters="sRGB"
       id="filter3221">
      <feGaussianBlur
         id="feGaussianBlur3223"
         stdDeviation="0.2125" />
    </filter>
    <linearGradient
       x1="88"
       y1="112"
       x2="88"
       y2="-8"
       id="linearGradient3233"
       xlink:href="#linearGradient3227"
       gradientUnits="userSpaceOnUse"
       gradientTransform="translate(0,0.8)" />
    <filter
       color-interpolation-filters="sRGB"
       id="filter3243">
      <feGaussianBlur
         id="feGaussianBlur3245"
         stdDeviation="1.3800491" />
    </filter>
    <linearGradient
       x1="72"
       y1="-16"
       x2="72"
       y2="64"
       id="linearGradient3249"
       xlink:href="#linearGradient26907"
       gradientUnits="userSpaceOnUse"
       gradientTransform="translate(129.5,0)" />
    <radialGradient
       cx="241.76289"
       cy="31.512632"
       r="3.5"
       fx="241.76289"
       fy="31.512632"
       id="radialGradient3277"
       xlink:href="#linearGradient3159"
       gradientUnits="userSpaceOnUse"
       gradientTransform="matrix(0.8076259,0.5896951,-1.6428571,2.25,99.016782,-182.84482)" />
    <radialGradient
       cx="185.8528"
       cy="31.163853"
       r="3.5625"
       fx="185.8528"
       fy="31.163853"
       id="radialGradient3285"
       xlink:href="#linearGradient3159"
       gradientUnits="userSpaceOnUse"
       gradientTransform="matrix(0.9135171,-0.4068004,1,2.2456148,-16.006057,35.372984)" />
    <radialGradient
       cx="184.82086"
       cy="105.38967"
       r="2.703125"
       fx="184.82086"
       fy="105.38967"
       id="radialGradient3293"
       xlink:href="#linearGradient3195"
       gradientUnits="userSpaceOnUse"
       gradientTransform="matrix(0.7757118,0.6310874,-3.3294798,4.0924865,391.47818,-441.38143)" />
    <radialGradient
       cx="243.40625"
       cy="105.53125"
       r="2.59375"
       fx="243.40625"
       fy="105.53125"
       id="radialGradient3301"
       xlink:href="#linearGradient3195"
       gradientUnits="userSpaceOnUse"
       gradientTransform="matrix(0.7165883,-0.6974964,1.9764912,2.0305916,-139.5974,61.015368)" />
    <filter
       x="-0.44578767"
       y="-0.36377925"
       width="1.8915753"
       height="1.7275585"
       color-interpolation-filters="sRGB"
       id="filter3383">
      <feGaussianBlur
         id="feGaussianBlur3385"
         stdDeviation="1.0041831" />
    </filter>
    <filter
       x="-0.46458593"
       y="-0.4059014"
       width="1.9291719"
       height="1.8118027"
       color-interpolation-filters="sRGB"
       id="filter3387">
      <feGaussianBlur
         id="feGaussianBlur3389"
         stdDeviation="1.0041831" />
    </filter>
    <filter
       x="-0.34429136"
       y="-0.27543309"
       width="1.6885827"
       height="1.5508662"
       color-interpolation-filters="sRGB"
       id="filter3391">
      <feGaussianBlur
         id="feGaussianBlur3393"
         stdDeviation="1.0041831" />
    </filter>
    <filter
       x="-0.33825117"
       y="-0.267782"
       width="1.6765023"
       height="1.5355639"
       color-interpolation-filters="sRGB"
       id="filter3395">
      <feGaussianBlur
         id="feGaussianBlur3397"
         stdDeviation="1.0041831" />
    </filter>
    <clipPath
       id="clipPath3405">
      <path
         d="m 185.5,28 c -0.99276,-0.0016 -1.95066,0.365936 -2.6875,1.03125 l -40,36 c -0.83978,0.758484 -1.31903,1.837148 -1.31903,2.96875 0,1.131602 0.47925,2.210266 1.31903,2.96875 l 40,36 c 0.73684,0.66531 1.69474,1.03288 2.6875,1.03125 l 56,0 c 2.20905,-2.2e-4 3.99978,-1.79095 4,-4 l 0,-72 c -2.2e-4,-2.209048 -1.79095,-3.999779 -4,-4 l -56,0 z"
         id="path3407"
         style="fill:url(#linearGradient3409);fill-opacity:1;fill-rule:nonzero;stroke:none" />
    </clipPath>
    <linearGradient
       x1="72"
       y1="-16"
       x2="72"
       y2="64"
       id="linearGradient3409"
       xlink:href="#linearGradient26907"
       gradientUnits="userSpaceOnUse"
       gradientTransform="translate(129.5,0)" />
    <radialGradient
       cx="185.8528"
       cy="31.163853"
       r="3.5625"
       fx="185.8528"
       fy="31.163853"
       id="radialGradient3411"
       xlink:href="#linearGradient3159"
       gradientUnits="userSpaceOnUse"
       gradientTransform="matrix(0.9135171,-0.4068004,1,2.2456148,-16.006057,35.372984)" />
    <radialGradient
       cx="241.76289"
       cy="31.512632"
       r="3.5"
       fx="241.76289"
       fy="31.512632"
       id="radialGradient3413"
       xlink:href="#linearGradient3159"
       gradientUnits="userSpaceOnUse"
       gradientTransform="matrix(0.8076259,0.5896951,-1.6428571,2.25,99.016782,-182.84482)" />
    <radialGradient
       cx="243.40625"
       cy="105.53125"
       r="2.59375"
       fx="243.40625"
       fy="105.53125"
       id="radialGradient3415"
       xlink:href="#linearGradient3195"
       gradientUnits="userSpaceOnUse"
       gradientTransform="matrix(0.7165883,-0.6974964,1.9764912,2.0305916,-139.5974,61.015368)" />
    <radialGradient
       cx="184.82086"
       cy="105.38967"
       r="2.703125"
       fx="184.82086"
       fy="105.38967"
       id="radialGradient3417"
       xlink:href="#linearGradient3195"
       gradientUnits="userSpaceOnUse"
       gradientTransform="matrix(0.7757118,0.6310874,-3.3294798,4.0924865,391.47818,-441.38143)" />
  </defs>
  <g
     id="layer1">
    <path
       d="m 56,28.8 c -0.99276,-0.0016 -1.950661,0.365936 -2.6875,1.03125 l -40,36 c -0.839777,0.758484 -1.319034,1.837148 -1.319034,2.96875 0,1.131602 0.479257,2.210266 1.319034,2.96875 l 40,36 c 0.736839,0.66531 1.69474,1.03288 2.6875,1.03125 l 56,0 c 2.20905,-2.2e-4 3.99978,-1.79095 4,-4 l 0,-72 c -2.2e-4,-2.209048 -1.79095,-3.999779 -4,-4 l -56,0 z"
       transform="matrix(-1,0,0,1,127.99347,0)"
       id="path3225"
       style="fill:url(#linearGradient3233);fill-opacity:1;fill-rule:nonzero;stroke:none;filter:url(#filter3243)" />
    <path
       d="m 71.993466,28 c 0.99276,-0.0016 1.950661,0.365936 2.6875,1.03125 l 40.000004,36 C 115.52074,65.789734 116,66.868398 116,68 c 0,1.131602 -0.47926,2.210266 -1.31903,2.96875 l -40.000004,36 c -0.736839,0.66531 -1.69474,1.03288 -2.6875,1.03125 l -56,0 c -2.20905,-2.2e-4 -3.99978,-1.79095 -4,-4 l 0,-72 c 2.2e-4,-2.209048 1.79095,-3.999779 4,-4 l 56,0 z"
       id="path2941"
       style="fill:url(#linearGradient2963);fill-opacity:1;fill-rule:nonzero;stroke:none" />
    <g
       transform="matrix(-1,0,0,1,257.49347,0)"
       clip-path="url(#clipPath3405)"
       id="g3399"
       style="stroke:none">
      <path
         d="m 185.5,28 c -0.99276,-0.0016 -1.95066,0.365936 -2.6875,1.03125 L 181.875,29.875 188,36 l 0,-8 -2.5,0 z"
         id="path3251"
         style="fill:url(#radialGradient3411);fill-opacity:1;fill-rule:evenodd;stroke:none;filter:url(#filter3395)" />
      <path
         d="m 240,28 -0.5,7.75 6,-3.75 c -2.2e-4,-2.209048 -1.79095,-3.999779 -4,-4 l -1.5,0 z"
         id="path3253"
         style="fill:url(#radialGradient3413);fill-opacity:1;fill-rule:evenodd;stroke:none;filter:url(#filter3391)" />
      <path
         d="m 241.3125,103.0625 0.0625,4.9375 0.125,0 c 2.20905,-2.2e-4 3.99978,-1.79095 4,-4 l 0,-0.90625 -4.1875,-0.0312 z"
         id="path3255"
         style="fill:url(#radialGradient3415);fill-opacity:1;fill-rule:evenodd;stroke:none;filter:url(#filter3387)" />
      <path
         d="M 186.15625,102.375 181.75,106 l 1.0625,0.96875 c 0.73684,0.66531 1.69474,1.03288 2.6875,1.03125 l 0.0312,0 0.625,-5.625 z"
         id="path3257"
         style="fill:url(#radialGradient3417);fill-opacity:1;fill-rule:evenodd;stroke:none;filter:url(#filter3383)" />
    </g>
    <path
       d="m 71.993466,32 40.000004,36 -40.000004,36 -56,0 0,-72 56,0 z"
       id="rect1969"
       style="fill:url(#radialGradient2965);fill-opacity:1;fill-rule:nonzero;stroke:none" />
    <path
       d="m 71.993466,32 40.000004,36 -4.90625,4.40625 C 99.926016,72.9539 92.539626,73.25 84.993466,73.25 c -25.68969,0 -49.47254,-3.319733 -69,-8.96875 l 0,-32.28125 56,0 z"
       id="path2967"
       style="fill:url(#linearGradient2980);fill-opacity:1;fill-rule:nonzero;stroke:none" />
    <path
       d="m 59.17819,37.864264 -11.8125,11.78125 17.0625,17.0625 -17.0625,17.03125 11.8125,11.8125 17.03125,-17.0625 17.0625,17.0625 11.78125,-11.8125 -17.03125,-17.03125 17.03125,-17.0625 -11.78125,-11.78125 -17.0625,17.03125 -17.03125,-17.03125 z"
       transform="matrix(-1,0,0,1,127.99347,0)"
       id="path3528"
       style="fill:none;stroke:url(#radialGradient3133);stroke-width:5;stroke-linecap:round;stroke-linejoin:round;stroke-miterlimit:4;stroke-opacity:1;stroke-dasharray:none;filter:url(#filter3550)" />
    <path
       d="m 68.815276,37.864264 11.8125,11.78125 -17.0625,17.0625 17.0625,17.03125 -11.8125,11.8125 -17.03125,-17.0625 -17.0625,17.0625 -11.78125,-11.8125 17.03125,-17.03125 -17.03125,-17.0625 11.78125,-11.78125 17.0625,17.03125 17.03125,-17.03125 z"
       id="rect3376"
       style="fill:url(#linearGradient3124);fill-opacity:1;stroke:none" />
    <path
       d="m 68.805966,37.875 11.8125,11.78125 -17.0625,17.0625 6.15625,6.125 c -11.311694,-0.592043 -22.14911,-1.831095 -32.25,-3.625 l 2.5,-2.5 -17.03125,-17.0625 11.78125,-11.78125 17.0625,17.03125 17.03125,-17.03125 z"
       id="path3152"
       style="fill:url(#linearGradient3165);fill-opacity:1;stroke:none" />
    <path
       d="m 72.040986,32 40.000004,36 -40.000004,-35 -56,0 0,-1 56,0 z"
       id="path3169"
       style="fill:url(#linearGradient3189);fill-opacity:1;fill-rule:nonzero;stroke:none" />
    <path
       d="M 16.960436,63.28125 C 36.487899,68.930267 60.270749,72.25 85.960439,72.25 c 7.54616,0 14.932551,-0.2961 22.093751,-0.84375 l 3.90625,-3.5 0.0937,0.09375 -4.90625,4.40625 C 99.986739,72.9539 92.600349,73.25 85.054189,73.25 c -25.68969,0 -49.47254,-3.319733 -69.000003,-8.96875 l 0,-32.28125 0.90625,31.28125 z"
       id="path3177"
       style="fill:url(#linearGradient3191);fill-opacity:1;fill-rule:nonzero;stroke:none" />
    <path
       d="m 56,32 -40,36 40,36 56,0 0,-72 -56,0 z"
       transform="matrix(-1,0,0,1,127.99347,0)"
       id="path3193"
       style="opacity:0.60399996;fill:none;stroke:url(#linearGradient3201);stroke-width:1;stroke-linecap:round;stroke-linejoin:round;stroke-miterlimit:4;stroke-opacity:1;stroke-dasharray:none;stroke-dashoffset:4;filter:url(#filter3221)" />
  </g>
</svg>
