<?xml version="1.0" encoding="UTF-8" standalone="no"?>
<!-- Created with Inkscape (http://www.inkscape.org/) -->

<svg
   xmlns:svg="http://www.w3.org/2000/svg"
   xmlns="http://www.w3.org/2000/svg"
   xmlns:xlink="http://www.w3.org/1999/xlink"
   version="1.0"
   width="128"
   height="128"
   viewBox="0 0 122.113 43.102"
   id="Livello_1"
   xml:space="preserve"><defs
   id="defs11"><linearGradient
     x1="28.0005"
     y1="64"
     x2="28.0005"
     y2="0.00048828119"
     id="XMLID_2_"
     gradientUnits="userSpaceOnUse">
	<stop
   id="stop6"
   style="stop-color:#888a85;stop-opacity:1"
   offset="0" />
	<stop
   id="stop8"
   style="stop-color:#000000;stop-opacity:1"
   offset="0.5" />
	<stop
   id="stop10"
   style="stop-color:#888a85;stop-opacity:1"
   offset="1" />
</linearGradient><linearGradient
     x1="47.972351"
     y1="35.892506"
     x2="55.927299"
     y2="27.937553"
     id="linearGradient2753"
     xlink:href="#XMLID_2_"
     gradientUnits="userSpaceOnUse" /><linearGradient
     x1="-0.07032413"
     y1="25.541344"
     x2="122.11304"
     y2="25.541344"
     id="linearGradient8134"
     gradientUnits="userSpaceOnUse"
     gradientTransform="matrix(-0.9375,0,0,-0.973906,118.297,13.91893)">
	<stop
   id="stop8136"
   style="stop-color:#ffffff;stop-opacity:0"
   offset="0" /><stop
   id="stop8138"
   style="stop-color:#b4b7bf;stop-opacity:0.24705882"
   offset="0.08610961" /><stop
   id="stop8140"
   style="stop-color:#717275;stop-opacity:0.49803922"
   offset="0.23823018" /><stop
   id="stop8142"
   style="stop-color:#5d5e61;stop-opacity:1"
   offset="0.48772454" />
	<stop
   id="stop8144"
   style="stop-color:#303132;stop-opacity:1"
   offset="1" />
</linearGradient><linearGradient
     x1="11.207067"
     y1="-1.2618321e-05"
     x2="94.859344"
     y2="43.100994"
     id="linearGradient8146"
     xlink:href="#linearGradient8134"
     gradientUnits="userSpaceOnUse"
     gradientTransform="matrix(-0.6875,0,0,-0.7082955,206.06576,-1.3451968)"
     spreadMethod="pad" /><linearGradient
     id="linearGradient3291"><stop
       id="stop3293"
       style="stop-color:#000000;stop-opacity:1"
       offset="0" /><stop
       id="stop3295"
       style="stop-color:#000000;stop-opacity:0"
       offset="1" /></linearGradient><radialGradient
     cx="61.056499"
     cy="76.883453"
     r="61.056499"
     fx="61.056499"
     fy="76.883453"
     id="radialGradient5084"
     xlink:href="#linearGradient3291"
     gradientUnits="userSpaceOnUse"
     gradientTransform="matrix(1,0,0,0.09374999,0,69.675629)" /><linearGradient
     x1="101.96821"
     y1="10.102905"
     x2="-0.092771277"
     y2="-31.873436"
     id="linearGradient5862"
     xlink:href="#linearGradient8134"
     gradientUnits="userSpaceOnUse"
     gradientTransform="matrix(-0.6791737,-0.2735502,-0.3059802,0.7226063,87.411719,22.926518)" /></defs>


<path
   d="m 122.113,76.883453 c 0,3.161303 -27.335926,5.724046 -61.0565,5.724046 C 27.335926,82.607499 0,80.044756 0,76.883453 c 0,-3.161304 27.335926,-5.724047 61.0565,-5.724047 33.720574,0 61.0565,2.562743 61.0565,5.724047 l 0,0 z"
   id="path1563"
   style="opacity:0.38139535;fill:url(#radialGradient5084);fill-opacity:1;fill-rule:nonzero;stroke:none" /><path
   d="M 81.728684,29.183063 52.338108,17.243296 c 0,0 10.568929,-7.5799751 9.449366,-6.777116 C 52.239857,-5.8924414 31.318752,-9.7048567 15.05748,1.9559593 12.582558,-2.2848879 10.107292,-6.5266954 7.6320625,-10.766842 30.877478,-27.434757 60.78336,-21.988843 74.433576,1.3989552 l 9.519111,-6.8256388 -2.224003,34.6097466 z"
   id="path5799"
   style="fill:url(#linearGradient5862);fill-opacity:1" /><path
   d="m 55.927301,31.91503 a 3.9774756,3.9774756 0 1 1 -7.954951,0 3.9774756,3.9774756 0 1 1 7.954951,0 z"
   transform="matrix(1.9188207,0,0,1.9188207,-8.09765,-16.792032)"
   id="path2167"
   style="fill:url(#linearGradient2753);fill-opacity:1;fill-rule:evenodd;stroke:none" /></svg>