<?xml version="1.0" encoding="UTF-8" standalone="no"?>
<!-- Created with Inkscape (http://www.inkscape.org/) -->
<svg
   xmlns:dc="http://purl.org/dc/elements/1.1/"
   xmlns:cc="http://creativecommons.org/ns#"
   xmlns:rdf="http://www.w3.org/1999/02/22-rdf-syntax-ns#"
   xmlns:svg="http://www.w3.org/2000/svg"
   xmlns="http://www.w3.org/2000/svg"
   xmlns:xlink="http://www.w3.org/1999/xlink"
   xmlns:sodipodi="http://sodipodi.sourceforge.net/DTD/sodipodi-0.dtd"
   xmlns:inkscape="http://www.inkscape.org/namespaces/inkscape"
   width="16"
   height="16"
   id="svg6020"
   sodipodi:version="0.32"
   inkscape:version="0.46"
   version="1.0"
   sodipodi:docname="xa_d.svg"
   inkscape:output_extension="org.inkscape.output.svg.inkscape">
  <defs
     id="defs6022">
    <linearGradient
       id="linearGradient3605">
      <stop
         id="stop3607"
         offset="0"
         style="stop-color:#fc9400;stop-opacity:1" />
      <stop
         id="stop3609"
         offset="1"
         style="stop-color:#ffff00;stop-opacity:1;" />
    </linearGradient>
    <linearGradient
       id="linearGradient3894">
      <stop
         id="stop3896"
         offset="0"
         style="stop-color:#8d4402;stop-opacity:1;" />
      <stop
         id="stop3898"
         offset="1"
         style="stop-color:#8d4402;stop-opacity:0.76426798;" />
    </linearGradient>
    <linearGradient
       id="linearGradient6776">
      <stop
         id="stop6778"
         offset="0"
         style="stop-color:#ffd500;stop-opacity:1;" />
      <stop
         style="stop-color:#ba3d00;stop-opacity:0.49803922;"
         offset="0.36835089"
         id="stop6780" />
      <stop
         id="stop6782"
         offset="1"
         style="stop-color:#ffff00;stop-opacity:0;" />
    </linearGradient>
    <linearGradient
       id="linearGradient3682">
      <stop
         style="stop-color:#000000;stop-opacity:1;"
         offset="0"
         id="stop3684" />
      <stop
         style="stop-color:#000000;stop-opacity:0;"
         offset="1"
         id="stop3686" />
    </linearGradient>
    <linearGradient
       id="linearGradient8777">
      <stop
         id="stop8779"
         offset="0"
         style="stop-color:#ffffff;stop-opacity:1;" />
      <stop
         id="stop8781"
         offset="1"
         style="stop-color:#ffff49;stop-opacity:0;" />
    </linearGradient>
    <linearGradient
       id="linearGradient3488">
      <stop
         id="stop3490"
         offset="0"
         style="stop-color:#434343;stop-opacity:1;" />
      <stop
         id="stop3492"
         offset="1"
         style="stop-color:#1f1f1f;stop-opacity:1;" />
    </linearGradient>
    <linearGradient
       id="linearGradient8767">
      <stop
         offset="0"
         style="stop-color:#d8d8d8;stop-opacity:1;"
         id="stop8769" />
      <stop
         offset="1"
         style="stop-color:#383c47;stop-opacity:1;"
         id="stop8768" />
    </linearGradient>
    <linearGradient
       id="linearGradient3535">
      <stop
         id="stop3537"
         style="stop-color:#d8d8d8;stop-opacity:1;"
         offset="0" />
      <stop
         id="stop3539"
         style="stop-color:#383c47;stop-opacity:0.34243175;"
         offset="1" />
    </linearGradient>
    <filter
       height="1.24"
       y="-0.12"
       width="1.24"
       x="-0.12"
       id="filter3750"
       inkscape:collect="always">
      <feGaussianBlur
         id="feGaussianBlur3752"
         stdDeviation="0.47230159"
         inkscape:collect="always" />
    </filter>
    <linearGradient
       id="linearGradient3724">
      <stop
         id="stop3726"
         offset="0"
         style="stop-color:#326acd;stop-opacity:1;" />
      <stop
         id="stop3728"
         offset="1"
         style="stop-color:#78b1ff;stop-opacity:1;" />
    </linearGradient>
    <linearGradient
       inkscape:collect="always"
       id="linearGradient15677">
      <stop
         style="stop-color:#484040;stop-opacity:1;"
         offset="0"
         id="stop15679" />
      <stop
         style="stop-color:#484040;stop-opacity:0;"
         offset="1"
         id="stop15681" />
    </linearGradient>
    <filter
       inkscape:collect="always"
       id="filter16257"
       x="-0.12"
       width="1.24"
       y="-0.12"
       height="1.24">
      <feGaussianBlur
         inkscape:collect="always"
         stdDeviation="0.45"
         id="feGaussianBlur16259" />
    </filter>
    <filter
       inkscape:collect="always"
       id="filter14686"
       x="-0.092690147"
       width="1.1853803"
       y="-0.16219579"
       height="1.3243916">
      <feGaussianBlur
         inkscape:collect="always"
         stdDeviation="0.66377731"
         id="feGaussianBlur14688" />
    </filter>
    <filter
       inkscape:collect="always"
       id="filter14479"
       x="-0.094286621"
       width="1.1885732"
       y="-0.16499721"
       height="1.3299944">
      <feGaussianBlur
         inkscape:collect="always"
         stdDeviation="0.63594363"
         id="feGaussianBlur14481" />
    </filter>
    <linearGradient
       id="linearGradient5827">
      <stop
         id="stop5829"
         offset="0"
         style="stop-color:#46a3e0;stop-opacity:1;" />
      <stop
         id="stop5831"
         offset="1"
         style="stop-color:#46a3e0;stop-opacity:0" />
    </linearGradient>
    <linearGradient
       id="linearGradient25248">
      <stop
         style="stop-color:#1a6a9e;stop-opacity:1;"
         offset="0"
         id="stop25250" />
      <stop
         style="stop-color:#46a3e0;stop-opacity:0"
         offset="1"
         id="stop25252" />
    </linearGradient>
    <linearGradient
       id="linearGradient7643"
       inkscape:collect="always">
      <stop
         id="stop7645"
         offset="0"
         style="stop-color:#000000;stop-opacity:1;" />
      <stop
         id="stop7647"
         offset="1"
         style="stop-color:#000000;stop-opacity:0;" />
    </linearGradient>
    <filter
       id="filter6694"
       inkscape:collect="always">
      <feGaussianBlur
         id="feGaussianBlur6696"
         stdDeviation="0.0069072988"
         inkscape:collect="always" />
    </filter>
    <filter
       id="filter3856"
       inkscape:collect="always">
      <feGaussianBlur
         id="feGaussianBlur3858"
         stdDeviation="0.48023163"
         inkscape:collect="always" />
    </filter>
    <filter
       id="filter6788"
       inkscape:collect="always">
      <feGaussianBlur
         id="feGaussianBlur6790"
         stdDeviation="0.096128255"
         inkscape:collect="always" />
    </filter>
    <linearGradient
       id="linearGradient3496"
       inkscape:collect="always">
      <stop
         id="stop3498"
         offset="0"
         style="stop-color:#000000;stop-opacity:1;" />
      <stop
         id="stop3500"
         offset="1"
         style="stop-color:#000000;stop-opacity:0;" />
    </linearGradient>
    <linearGradient
       id="linearGradient3356"
       inkscape:collect="always">
      <stop
         id="stop3358"
         offset="0"
         style="stop-color:#000000;stop-opacity:1;" />
      <stop
         id="stop3360"
         offset="1"
         style="stop-color:#000000;stop-opacity:0;" />
    </linearGradient>
    <radialGradient
       inkscape:collect="always"
       xlink:href="#linearGradient15677"
       id="radialGradient5574"
       gradientUnits="userSpaceOnUse"
       gradientTransform="matrix(1.1383236,0,0,1.1383236,-162.20752,57.057196)"
       cx="15.494585"
       cy="23.725632"
       fx="15.494585"
       fy="23.725632"
       r="3.6000003" />
    <linearGradient
       inkscape:collect="always"
       xlink:href="#linearGradient3724"
       id="linearGradient5576"
       gradientUnits="userSpaceOnUse"
       x1="-35.619049"
       y1="28.317461"
       x2="-35.619049"
       y2="20.571428" />
    <radialGradient
       inkscape:collect="always"
       xlink:href="#linearGradient7643"
       id="radialGradient5624"
       gradientUnits="userSpaceOnUse"
       gradientTransform="matrix(2.1658561,1.2894503e-7,-9.2356321e-8,2.1666711,17.102101,-11.463553)"
       cx="-14.669135"
       cy="9.8258677"
       fx="-14.669135"
       fy="9.8258677"
       r="6.8837447" />
    <linearGradient
       inkscape:collect="always"
       xlink:href="#linearGradient3682"
       id="linearGradient5626"
       gradientUnits="userSpaceOnUse"
       gradientTransform="translate(-0.28125,3.125e-2)"
       x1="-125.75"
       y1="-75.5625"
       x2="-141.0625"
       y2="-83.625" />
    <linearGradient
       inkscape:collect="always"
       xlink:href="#linearGradient3605"
       id="linearGradient5628"
       gradientUnits="userSpaceOnUse"
       x1="-17.809622"
       y1="11.985559"
       x2="-11.716621"
       y2="8.0866423" />
    <radialGradient
       inkscape:collect="always"
       xlink:href="#linearGradient3894"
       id="radialGradient5630"
       gradientUnits="userSpaceOnUse"
       gradientTransform="matrix(-2.4313,1.8325218e-7,-2.0029616e-7,-1.9295519,-50.342248,28.76672)"
       spreadMethod="reflect"
       cx="-14.67148"
       cy="9.8194942"
       fx="-14.67148"
       fy="9.8194942"
       r="6.8851213" />
    <radialGradient
       inkscape:collect="always"
       xlink:href="#linearGradient8777"
       id="radialGradient5632"
       gradientUnits="userSpaceOnUse"
       gradientTransform="matrix(0.4381231,0.4058587,0.2686471,-0.2337344,-141.60528,-85.400328)"
       cx="8.5236788"
       cy="14.238245"
       fx="8.0471926"
       fy="20.605503"
       r="8.5019808" />
    <linearGradient
       inkscape:collect="always"
       xlink:href="#linearGradient6776"
       id="linearGradient5634"
       gradientUnits="userSpaceOnUse"
       gradientTransform="matrix(1.1463555,0,0,1.1463555,16.84144,32.065391)"
       x1="-136.74507"
       y1="-97.70565"
       x2="-132.40616"
       y2="-102.28151" />
    <linearGradient
       inkscape:collect="always"
       xlink:href="#linearGradient3488"
       id="linearGradient5636"
       gradientUnits="userSpaceOnUse"
       x1="-138.24599"
       y1="-76.256287"
       x2="-132.24574"
       y2="-76.256287" />
    <radialGradient
       inkscape:collect="always"
       xlink:href="#linearGradient3496"
       id="radialGradient5638"
       gradientUnits="userSpaceOnUse"
       gradientTransform="matrix(1.7950279,0,0,1.5019022,107.52424,38.273199)"
       cx="-135.24586"
       cy="-76.256287"
       fx="-135.24586"
       fy="-76.256287"
       r="3.0626223" />
    <linearGradient
       inkscape:collect="always"
       xlink:href="#linearGradient8767"
       id="linearGradient5640"
       gradientUnits="userSpaceOnUse"
       gradientTransform="translate(33.484371,-0.40625)"
       spreadMethod="reflect"
       x1="-161.89062"
       y1="-62.875"
       x2="-164.75"
       y2="-62.875" />
    <radialGradient
       inkscape:collect="always"
       xlink:href="#linearGradient3356"
       id="radialGradient5642"
       gradientUnits="userSpaceOnUse"
       gradientTransform="matrix(1.4017755,0,0,1.0619512,87.659122,3.4889268)"
       cx="-154.75"
       cy="-62.875"
       fx="-154.75"
       fy="-62.875"
       r="2.0625" />
    <linearGradient
       inkscape:collect="always"
       xlink:href="#linearGradient3535"
       id="linearGradient5644"
       gradientUnits="userSpaceOnUse"
       spreadMethod="reflect"
       x1="-128.44688"
       y1="-64.19207"
       x2="-131.38617"
       y2="-64.19207" />
    <linearGradient
       inkscape:collect="always"
       xlink:href="#linearGradient3535"
       id="linearGradient5646"
       gradientUnits="userSpaceOnUse"
       spreadMethod="reflect"
       x1="-128.42488"
       y1="-62.389999"
       x2="-131.25786"
       y2="-62.389999" />
    <linearGradient
       inkscape:collect="always"
       xlink:href="#linearGradient3535"
       id="linearGradient5648"
       gradientUnits="userSpaceOnUse"
       spreadMethod="reflect"
       x1="-128.43126"
       y1="-63.591034"
       x2="-131.37344"
       y2="-63.591034" />
    <linearGradient
       inkscape:collect="always"
       xlink:href="#linearGradient3535"
       id="linearGradient5650"
       gradientUnits="userSpaceOnUse"
       spreadMethod="reflect"
       x1="-128.3593"
       y1="-62.989998"
       x2="-131.38522"
       y2="-62.989998" />
    <linearGradient
       inkscape:collect="always"
       xlink:href="#linearGradient25248"
       id="linearGradient5652"
       gradientUnits="userSpaceOnUse"
       x1="-8.8531103"
       y1="-6.0073519"
       x2="-0.85971105"
       y2="3.3001771" />
    <linearGradient
       inkscape:collect="always"
       xlink:href="#linearGradient25248"
       id="linearGradient5654"
       gradientUnits="userSpaceOnUse"
       x1="-12.275559"
       y1="3.9158776"
       x2="0.875"
       y2="0.85054004" />
    <linearGradient
       inkscape:collect="always"
       xlink:href="#linearGradient25248"
       id="linearGradient5656"
       gradientUnits="userSpaceOnUse"
       x1="8.9178572"
       y1="-6.9193559"
       x2="7.0414319"
       y2="-3.0625" />
    <linearGradient
       inkscape:collect="always"
       xlink:href="#linearGradient25248"
       id="linearGradient5658"
       gradientUnits="userSpaceOnUse"
       x1="12.81968"
       y1="-3.0178838"
       x2="8.2868443"
       y2="-1.328125" />
    <linearGradient
       inkscape:collect="always"
       xlink:href="#linearGradient5827"
       id="linearGradient5660"
       gradientUnits="userSpaceOnUse"
       x1="7.8802814"
       y1="-9.5967464"
       x2="7.6017585"
       y2="-2.8242834" />
    <linearGradient
       inkscape:collect="always"
       xlink:href="#linearGradient25248"
       id="linearGradient5662"
       gradientUnits="userSpaceOnUse"
       x1="3.8775375"
       y1="5.2799201"
       x2="9.039114"
       y2="0.47666147" />
    <linearGradient
       inkscape:collect="always"
       xlink:href="#linearGradient25248"
       id="linearGradient5664"
       gradientUnits="userSpaceOnUse"
       x1="-2.8201923"
       y1="-13.751701"
       x2="-1.6310254"
       y2="-0.76957375" />
  </defs>
  <sodipodi:namedview
     id="base"
     pagecolor="#ffffff"
     bordercolor="#666666"
     borderopacity="1.0"
     gridtolerance="10000"
     guidetolerance="10"
     objecttolerance="10"
     inkscape:pageopacity="0.0"
     inkscape:pageshadow="2"
     inkscape:zoom="5.6568542"
     inkscape:cx="-35.521216"
     inkscape:cy="15.172367"
     inkscape:document-units="px"
     inkscape:current-layer="layer1"
     showgrid="false"
     inkscape:window-width="1438"
     inkscape:window-height="882"
     inkscape:window-x="0"
     inkscape:window-y="16"
     showguides="true"
     inkscape:guide-bbox="true" />
  <metadata
     id="metadata6025">
    <rdf:RDF>
      <cc:Work
         rdf:about="">
        <dc:format>image/svg+xml</dc:format>
        <dc:type
           rdf:resource="http://purl.org/dc/dcmitype/StillImage" />
      </cc:Work>
    </rdf:RDF>
  </metadata>
  <g
     inkscape:label="Layer 1"
     inkscape:groupmode="layer"
     id="layer1">
    <g
       id="g5728">
      <g
         id="g5693">
        <g
           id="g5666">
          <g
             transform="matrix(0.9999056,0,0,0.993687,143.001,89.147219)"
             id="g5412">
            <path
               style="fill:none;fill-opacity:1;fill-rule:evenodd;stroke:url(#radialGradient5624);stroke-width:1.06266141;stroke-linecap:square;stroke-linejoin:round;stroke-miterlimit:4;stroke-dasharray:none;stroke-opacity:1;filter:url(#filter6694)"
               d="M -8.3176899,9.8194942 C -8.26426,12.696909 -10.425762,15.407897 -13.237122,16.010491 C -15.890257,16.668546 -18.858125,15.370274 -20.183074,12.981334 C -21.643368,10.535947 -21.151781,7.1487711 -19.054518,5.220841 C -17.028261,3.218013 -13.619645,2.8897743 -11.247652,4.4671366 C -9.4448059,5.6059042 -8.2986208,7.6845686 -8.3176899,9.8194942 z"
               id="path5414"
               transform="matrix(0.9954715,0,0,0.842322,-120.64317,-92.149105)" />
            <path
               style="fill:url(#linearGradient5626);fill-opacity:1;fill-rule:evenodd;stroke:none;stroke-width:1;stroke-linecap:butt;stroke-linejoin:miter;stroke-miterlimit:4;stroke-dasharray:none;stroke-opacity:1;filter:url(#filter3856)"
               d="M -134.34375,-89.6875 C -137.10909,-89.719367 -140.03498,-88.168691 -141.02484,-85.487317 C -141.89024,-83.129636 -140.97336,-80.218492 -138.8062,-78.896594 C -138.23215,-78.411396 -137.07397,-78.456081 -137.40625,-77.451999 C -137.35966,-76.631769 -137.51266,-75.78521 -137.28407,-74.986298 C -136.98089,-74.072282 -136.00422,-73.518384 -135.06423,-73.625 C -134.27848,-73.658756 -133.47567,-73.541771 -132.70492,-73.719428 C -131.74695,-74.005462 -131.17423,-75.0294 -131.28125,-75.998265 C -131.27989,-76.738442 -131.28281,-77.478603 -131.28906,-78.21875 C -129.36005,-78.840314 -127.77204,-80.510405 -127.44633,-82.537471 C -127.03783,-84.477531 -127.7898,-86.564153 -129.29448,-87.843374 C -130.66769,-89.065596 -132.51636,-89.690604 -134.34375,-89.6875 z"
               id="path5416"
               transform="matrix(0.9563942,0,0,0.9563942,-6.18938,-3.2099072)" />
            <path
               style="fill:url(#linearGradient5628);fill-opacity:1;fill-rule:evenodd;stroke:url(#radialGradient5630);stroke-width:1.06266141;stroke-linecap:square;stroke-linejoin:round;stroke-miterlimit:4;stroke-dasharray:none;stroke-opacity:1;filter:url(#filter6694)"
               d="M -8.3176899,9.8194942 C -8.26426,12.696909 -10.425762,15.407897 -13.237122,16.010491 C -15.890257,16.668546 -18.858125,15.370274 -20.183074,12.981334 C -21.643368,10.535947 -21.151781,7.1487711 -19.054518,5.220841 C -17.028261,3.218013 -13.619645,2.8897743 -11.247652,4.4671366 C -9.4448059,5.6059042 -8.2986208,7.6845686 -8.3176899,9.8194942 z"
               id="path5418"
               transform="matrix(0.9784021,0,0,0.8278787,-120.89356,-92.007187)" />
            <path
               style="fill:url(#radialGradient5632);fill-opacity:1;fill-rule:evenodd;stroke:none;stroke-width:0.99658197;stroke-linecap:butt;stroke-linejoin:round;stroke-miterlimit:4;stroke-dasharray:none;stroke-opacity:1;display:inline"
               d="M -129.91175,-83.16214 C -129.87159,-85.126697 -131.1863,-86.928553 -132.95098,-87.711657 C -134.07121,-88.227607 -135.32452,-88.503776 -136.55709,-88.450915 C -138.46065,-88.186957 -140.41467,-87.193659 -141.25664,-85.383664 C -142.32247,-83.104122 -141.70131,-80.33213 -140.24745,-78.368646 C -139.24311,-76.984151 -137.54,-75.903695 -135.77442,-76.232148 C -133.83109,-76.598393 -132.4572,-78.240839 -131.48186,-79.847415 C -130.85117,-80.897332 -130.34613,-82.018428 -129.91175,-83.16214 z"
               id="path5420" />
            <path
               style="fill:url(#linearGradient5634);fill-opacity:1;fill-rule:evenodd;stroke:none;stroke-width:1.06266141;stroke-linecap:square;stroke-linejoin:round;stroke-miterlimit:4;stroke-dasharray:none;stroke-opacity:1;filter:url(#filter6788)"
               d="M -134.93127,-88.751778 C -137.08507,-88.783119 -139.40516,-87.512078 -140.01565,-85.348207 C -140.53202,-83.606115 -139.55805,-81.721225 -138.04744,-80.82095 C -135.63597,-79.264481 -131.9692,-79.787886 -130.36351,-82.256532 C -129.38905,-83.688206 -129.58827,-85.731988 -130.76872,-86.985418 C -131.80478,-88.155819 -133.38585,-88.756458 -134.93127,-88.751778 z M -134.93127,-88.072418 C -133.08444,-88.106153 -131.08684,-86.986153 -130.62797,-85.106667 C -130.21215,-83.512795 -131.21928,-81.849978 -132.6505,-81.161469 C -134.75428,-80.049608 -137.77072,-80.664443 -138.95618,-82.820274 C -139.72546,-84.162776 -139.30307,-85.957703 -138.12572,-86.922452 C -137.2541,-87.689723 -136.08461,-88.074377 -134.93127,-88.072418 z"
               id="path5422"
               transform="matrix(0.9563942,0,0,0.9563942,-6.1893761,-3.2099072)" />
            <path
               style="fill:url(#linearGradient5636);fill-opacity:1;fill-rule:evenodd;stroke:url(#radialGradient5638);stroke-width:0.05;stroke-linecap:square;stroke-linejoin:miter;stroke-miterlimit:4;stroke-dasharray:none;stroke-opacity:1"
               d="M -138.24599,-78.756283 L -138.24599,-78.381283 L -138.24599,-76.443783 L -138.24599,-76.381283 L -138.24599,-76.068783 L -138.24599,-76.006283 C -138.2127,-74.762346 -137.18513,-73.756285 -135.93349,-73.756283 L -134.55849,-73.756283 C -133.30685,-73.756283 -132.27927,-74.762345 -132.24599,-76.006283 C -132.24544,-76.026992 -132.24599,-76.047945 -132.24599,-76.068783 L -132.24599,-76.443783 L -132.24599,-78.381283 L -132.24599,-78.756283 L -132.62099,-78.756283 L -134.55849,-78.756283 L -135.93349,-78.756283 L -137.87099,-78.756283 L -138.24599,-78.756283 z"
               id="path5424" />
            <g
               id="g5426"
               transform="translate(-5.98036,-12.975033)">
              <path
                 sodipodi:nodetypes="ccccccccc"
                 id="path5428"
                 d="M -131.26563,-64.78125 L -127.26563,-64.78125 C -127.26563,-64.04547 -127.26563,-64.204524 -127.26563,-63.46875 L -127.26563,-63.09375 C -127.26563,-62.35798 -127.84236,-61.78125 -128.57813,-61.78125 L -129.95313,-61.78125 C -130.6889,-61.781251 -131.26563,-62.357976 -131.26563,-63.09375 L -131.26563,-63.46875 C -131.26563,-64.204524 -131.26563,-64.04548 -131.26563,-64.78125 z"
                 style="fill:url(#linearGradient5640);fill-opacity:1;fill-rule:evenodd;stroke:url(#radialGradient5642);stroke-width:0.2;stroke-linecap:square;stroke-linejoin:miter;stroke-miterlimit:4;stroke-dasharray:none;stroke-opacity:1" />
              <rect
                 ry="0.094587512"
                 y="-64.286659"
                 x="-131.07022"
                 height="0.18917502"
                 width="3.609175"
                 id="rect5430"
                 style="opacity:1;fill:#000000;fill-opacity:0.5254902;fill-rule:evenodd;stroke:url(#linearGradient5644);stroke-width:0.1;stroke-linecap:square;stroke-linejoin:miter;stroke-miterlimit:4;stroke-dasharray:none;stroke-opacity:1" />
              <rect
                 ry="0.099738106"
                 y="-62.489738"
                 x="-130.79724"
                 height="0.19947621"
                 width="3.063226"
                 id="rect5432"
                 style="opacity:1;fill:#000000;fill-opacity:0.52430558;fill-rule:evenodd;stroke:url(#linearGradient5646);stroke-width:0.1;stroke-linecap:butt;stroke-linejoin:round;stroke-miterlimit:4;stroke-dasharray:none;stroke-dashoffset:0;stroke-opacity:1" />
              <rect
                 ry="0.094587512"
                 y="-63.685623"
                 x="-131.07022"
                 height="0.18917502"
                 width="3.609175"
                 id="rect5434"
                 style="opacity:1;fill:#000000;fill-opacity:0.5254902;fill-rule:evenodd;stroke:url(#linearGradient5648);stroke-width:0.1;stroke-linecap:square;stroke-linejoin:miter;stroke-miterlimit:4;stroke-dasharray:none;stroke-opacity:1" />
              <rect
                 ry="0.094587512"
                 y="-63.084587"
                 x="-131.07022"
                 height="0.18917502"
                 width="3.609175"
                 id="rect5436"
                 style="opacity:1;fill:#000000;fill-opacity:0.5254902;fill-rule:evenodd;stroke:url(#linearGradient5650);stroke-width:0.1;stroke-linecap:square;stroke-linejoin:miter;stroke-miterlimit:4;stroke-dasharray:none;stroke-opacity:1" />
            </g>
          </g>
          <g
             transform="translate(56.247131,8.4094303)"
             id="g25254">
            <path
               style="fill:#4a4a4a;fill-opacity:1;fill-rule:evenodd;stroke:#4a4a4a;stroke-width:0.94307774;stroke-linecap:butt;stroke-linejoin:round;stroke-miterlimit:2;stroke-dasharray:none;stroke-dashoffset:0;stroke-opacity:1;filter:url(#filter14479)"
               d="M 4.7511286,7.297199 C 2.638741,7.297199 0.9243395,8.810614 0.9243395,10.675359 C 0.9243395,10.787273 0.9436405,10.898505 0.9557066,11.007637 C 0.469199,11.495489 0.1715284,12.134613 0.1715284,12.835166 C 0.1715284,14.363645 1.5767756,15.604149 3.3082409,15.604149 L 13.032049,15.604149 C 13.052899,15.604639 13.073802,15.604149 13.094784,15.604149 C 14.376067,15.604149 15.415951,14.686176 15.415951,13.555102 C 15.415951,12.666782 14.774985,11.92847 13.878961,11.644503 C 13.764536,10.299857 12.514149,9.235487 10.96182,9.235487 C 9.9608335,9.235487 9.0796125,9.669247 8.5465506,10.343081 C 8.3575749,8.633825 6.7367388,7.297199 4.7511286,7.297199 z"
               id="path14475"
               sodipodi:nodetypes="cscsccsscscc"
               transform="matrix(0.8881012,0,0,0.9935342,-55.351717,-8.5761266)" />
            <path
               style="fill:#4a4a4a;fill-opacity:1;fill-rule:evenodd;stroke:#4a4a4a;stroke-width:1.0013082;stroke-linecap:butt;stroke-linejoin:round;stroke-miterlimit:2;stroke-dasharray:none;stroke-dashoffset:0;stroke-opacity:1;filter:url(#filter14686)"
               d="M 5.1257621,6.978003 C 2.8829445,6.978003 1.0626871,8.584864 1.0626871,10.564748 C 1.0626871,10.683572 1.0831798,10.801672 1.095991,10.917543 C 0.5794439,11.435517 0.2633936,12.114104 0.2633936,12.857913 C 0.2633936,14.480768 1.7554079,15.797867 3.5937828,15.797867 L 10.421815,15.797867 C 10.421815,15.797867 10.879379,15.399713 11.310712,15.001559 C 12.095793,14.276867 11.289279,15.836164 13.917989,15.797867 C 13.940126,15.798387 13.962321,15.797867 13.984597,15.797867 C 15.344995,15.797867 16.449085,14.823214 16.449085,13.622301 C 16.449085,12.679131 15.768544,11.895233 14.817195,11.593732 C 14.695704,10.166061 13.368112,9.035972 11.719933,9.035972 C 10.657143,9.035972 9.7215095,9.496513 9.1555325,10.211954 C 8.9548895,8.397159 7.2339741,6.978003 5.1257621,6.978003 z"
               id="path14664"
               sodipodi:nodetypes="cscsccccsscscc"
               transform="matrix(0.8881012,0,0,0.9935342,-55.351717,-8.5761266)" />
            <path
               style="fill:#4d4d4d;fill-opacity:1;fill-rule:evenodd;stroke:#010101;stroke-width:0.95695657;stroke-linecap:butt;stroke-linejoin:round;stroke-miterlimit:2;stroke-dasharray:none;stroke-dashoffset:0;stroke-opacity:1"
               d="M -51.349288,-2.437665 C -53.375842,-2.437665 -55.020582,-0.81337663 -55.020582,1.1879767 C -55.020582,1.3080896 -55.002065,1.4274702 -54.990489,1.544597 C -55.457228,2.0681895 -55.742803,2.7541354 -55.742803,3.5060113 C -55.742803,5.1464664 -54.394656,6.4778509 -52.733546,6.4778509 L -46.563906,6.4778509 C -46.563906,6.4778509 -46.150465,6.0753782 -45.760721,5.6729054 C -45.05134,4.9403548 -45.780087,6.516562 -43.404852,6.4778509 C -43.384846,6.4783755 -43.364793,6.4778509 -43.344665,6.4778509 C -42.115445,6.4778509 -41.117816,5.4926257 -41.117816,4.2786898 C -41.117816,3.3252914 -41.732734,2.5328903 -42.592352,2.2281207 C -42.702127,0.78496555 -43.901706,-0.35737822 -45.390961,-0.35737822 C -46.35127,-0.35737822 -47.196686,0.10816012 -47.708087,0.83135863 C -47.889384,-1.0031178 -49.44436,-2.437665 -51.349288,-2.437665 z"
               id="path14662"
               sodipodi:nodetypes="cscsccccsscscc" />
            <path
               style="fill:#f2f2f2;fill-opacity:1;fill-rule:evenodd;stroke:#4a4a4a;stroke-width:0.94056845;stroke-linecap:butt;stroke-linejoin:round;stroke-miterlimit:2;stroke-dasharray:none;stroke-dashoffset:0;stroke-opacity:0.84027782"
               d="M -51.2993,-2.3613198 C -53.291149,-2.3613198 -54.907722,-0.76484845 -54.907722,1.2022338 C -54.907722,1.3202895 -54.889523,1.4376261 -54.878145,1.5527469 C -55.336891,2.0673728 -55.617576,2.7415722 -55.617576,3.4805719 C -55.617576,5.0929338 -54.292516,6.4015167 -52.659853,6.4015167 L -46.595869,6.4015167 C -46.595869,6.4015167 -46.189506,6.0059371 -45.80644,5.6103575 C -45.109209,4.8903512 -45.825474,6.4395661 -43.490913,6.4015167 C -43.471253,6.4020334 -43.451543,6.4015167 -43.431759,6.4015167 C -42.223587,6.4015167 -41.243044,5.4331646 -41.243044,4.2400175 C -41.243044,3.3029458 -41.847433,2.5241154 -42.692327,2.2245648 C -42.800224,0.80612485 -43.97926,-0.31665722 -45.443009,-0.31665722 C -46.386874,-0.31665722 -47.217812,0.14090601 -47.720456,0.85172111 C -47.898648,-0.95133979 -49.426995,-2.3613198 -51.2993,-2.3613198 z"
               id="path14422"
               sodipodi:nodetypes="cscsccccsscscc" />
            <path
               sodipodi:type="arc"
               style="fill:none;fill-opacity:1;fill-rule:evenodd;stroke:url(#linearGradient5652);stroke-width:3.12386084;stroke-linecap:butt;stroke-linejoin:round;stroke-miterlimit:2;stroke-dasharray:none;stroke-dashoffset:0;stroke-opacity:1"
               id="path14483"
               sodipodi:cx="0.875"
               sodipodi:cy="1.8125"
               sodipodi:rx="3.6683826"
               sodipodi:ry="3.6683826"
               d="M 4.5433826,1.8125 A 3.6683826,3.6683826 0 1 1 4.5428971,1.7528177"
               transform="matrix(0.5261423,0,0,0.5886045,-51.656577,0.5908737)"
               sodipodi:start="0"
               sodipodi:end="6.2669152"
               sodipodi:open="true" />
            <path
               sodipodi:type="arc"
               style="fill:none;fill-opacity:1;fill-rule:evenodd;stroke:url(#linearGradient5654);stroke-width:5.55822945;stroke-linecap:butt;stroke-linejoin:round;stroke-miterlimit:2;stroke-dasharray:none;stroke-dashoffset:0;stroke-opacity:1"
               id="path14501"
               sodipodi:cx="0.875"
               sodipodi:cy="1.8125"
               sodipodi:rx="3.6683826"
               sodipodi:ry="3.6683826"
               d="M 4.5433826,1.8125 A 3.6683826,3.6683826 0 1 1 -2.7933826,1.8125 A 3.6683826,3.6683826 0 1 1 4.5433826,1.8125 z"
               transform="matrix(0.3503486,0,0,0.2907584,-52.867791,2.9817082)" />
            <path
               sodipodi:type="arc"
               style="fill:none;fill-opacity:1;fill-rule:evenodd;stroke:url(#linearGradient5656);stroke-width:0.74516374;stroke-linecap:butt;stroke-linejoin:miter;stroke-miterlimit:2;stroke-dasharray:none;stroke-dashoffset:0;stroke-opacity:0.84027782"
               id="path14616"
               sodipodi:cx="7.375"
               sodipodi:cy="-3.0625"
               sodipodi:rx="1.2857144"
               sodipodi:ry="1.125"
               d="M 8.6607144,-3.0625 A 1.2857144,1.125 0 1 1 6.0892856,-3.0625 A 1.2857144,1.125 0 1 1 8.6607144,-3.0625 z"
               transform="matrix(1.1918202,0,0,1.3333099,-54.286221,6.6808103)" />
            <path
               sodipodi:type="arc"
               style="fill:none;fill-opacity:1;fill-rule:evenodd;stroke:url(#linearGradient5658);stroke-width:1.35746765;stroke-linecap:butt;stroke-linejoin:miter;stroke-miterlimit:2;stroke-dasharray:none;stroke-dashoffset:0;stroke-opacity:0.84027782"
               id="path14626"
               sodipodi:cx="8.96875"
               sodipodi:cy="-1.328125"
               sodipodi:rx="1.3159367"
               sodipodi:ry="1.3159367"
               d="M 10.284687,-1.328125 A 1.3159367,1.3159367 0 1 1 7.6528133,-1.328125 A 1.3159367,1.3159367 0 1 1 10.284687,-1.328125 z"
               transform="matrix(0.7590361,0,0,0.732223,-50.475007,5.2615853)" />
            <path
               sodipodi:type="arc"
               style="fill:none;fill-opacity:1;fill-rule:evenodd;stroke:url(#linearGradient5660);stroke-width:0.74516374;stroke-linecap:butt;stroke-linejoin:miter;stroke-miterlimit:2;stroke-dasharray:none;stroke-dashoffset:0;stroke-opacity:0.84027782"
               id="path14636"
               sodipodi:cx="7.375"
               sodipodi:cy="-3.0625"
               sodipodi:rx="1.2857144"
               sodipodi:ry="1.125"
               d="M 8.6607144,-3.0625 A 1.2857144,1.125 0 1 1 6.0892856,-3.0625 A 1.2857144,1.125 0 1 1 8.6607144,-3.0625 z"
               transform="matrix(1.2311592,-0.9571932,1.2933698,0.9111524,-55.312393,12.965557)" />
            <path
               sodipodi:type="arc"
               style="fill:none;fill-opacity:1;fill-rule:evenodd;stroke:url(#linearGradient5662);stroke-width:1.72317135;stroke-linecap:butt;stroke-linejoin:miter;stroke-miterlimit:2;stroke-dasharray:none;stroke-dashoffset:0;stroke-opacity:0.84027782"
               id="path14640"
               sodipodi:cx="8.609375"
               sodipodi:cy="0.84374994"
               sodipodi:rx="0.984375"
               sodipodi:ry="0.96875"
               d="M 9.579581,1.0075252 A 0.984375,0.96875 0 1 1 8.4835903,-0.11705861"
               sodipodi:start="0.16987418"
               sodipodi:end="4.5842574"
               transform="matrix(0,1.2237731,-1.1742566,0,-46.247089,-6.4246034)"
               sodipodi:open="true" />
            <path
               sodipodi:type="arc"
               style="fill:none;fill-opacity:1;fill-rule:evenodd;stroke:url(#linearGradient5664);stroke-width:1.92974675;stroke-linecap:butt;stroke-linejoin:round;stroke-miterlimit:2;stroke-dasharray:none;stroke-dashoffset:0;stroke-opacity:1"
               id="path14650"
               sodipodi:cx="0.875"
               sodipodi:cy="1.8125"
               sodipodi:rx="3.6683826"
               sodipodi:ry="3.6683826"
               d="M 4.5433826,1.8125 A 3.6683826,3.6683826 0 1 1 4.5428971,1.7528177"
               transform="matrix(-0.2457708,-0.4352887,0.3890962,-0.2749481,-51.279381,4.300797)"
               sodipodi:start="0"
               sodipodi:end="6.2669152"
               sodipodi:open="true" />
          </g>
        </g>
        <g
           id="g16301"
           transform="translate(155.72887,-72.75373)">
          <rect
             transform="matrix(0.9474535,0,0,0.9474535,-6.9349154,4.0419312)"
             ry="3.0060999"
             y="80.909981"
             x="-148.65881"
             height="8"
             width="8"
             id="rect16253"
             style="fill:#4d4d4d;fill-opacity:1;fill-rule:evenodd;stroke:#4d4d4d;stroke-width:1;stroke-linecap:butt;stroke-linejoin:miter;stroke-miterlimit:2;stroke-dasharray:none;stroke-dashoffset:0;stroke-opacity:0.88194442;filter:url(#filter16257)" />
          <rect
             ry="2.8797858"
             y="80.232719"
             x="-148.4016"
             height="7.6638465"
             width="7.6638465"
             id="rect15669"
             style="fill:#4a4a4a;fill-opacity:1;fill-rule:evenodd;stroke:#000000;stroke-width:0.95798081;stroke-linecap:butt;stroke-linejoin:miter;stroke-miterlimit:2;stroke-dasharray:none;stroke-dashoffset:0;stroke-opacity:1" />
          <rect
             ry="2.84814"
             y="80.274826"
             x="-148.3595"
             height="7.579628"
             width="7.579628"
             id="rect15655"
             style="fill:#ffffff;fill-opacity:1;fill-rule:evenodd;stroke:#870101;stroke-width:0.9474535;stroke-linecap:butt;stroke-linejoin:miter;stroke-miterlimit:2;stroke-dasharray:none;stroke-dashoffset:0;stroke-opacity:0.94444442" />
          <path
             sodipodi:nodetypes="ccccccccc"
             id="rect15651"
             d="M -144.45203,80.775851 L -144.45203,84.032722 L -146.52458,84.032722 L -146.52458,84.980176 L -143.50458,84.980176 L -143.50458,84.950568 L -143.50458,84.032722 L -143.50458,80.775851 L -144.45203,80.775851 z"
             style="fill:#000000;fill-opacity:1;fill-rule:evenodd;stroke:none;stroke-width:0.09474535;stroke-linecap:butt;stroke-linejoin:miter;stroke-miterlimit:2;stroke-dasharray:none;stroke-dashoffset:0;stroke-opacity:0.20486109" />
          <rect
             ry="2.2785118"
             y="81.032791"
             x="-147.60153"
             height="6.0637031"
             width="6.0637031"
             id="rect15673"
             style="fill:none;fill-opacity:1;fill-rule:evenodd;stroke:url(#radialGradient5574);stroke-width:0.75796288;stroke-linecap:butt;stroke-linejoin:miter;stroke-miterlimit:2;stroke-dasharray:none;stroke-dashoffset:0;stroke-opacity:0.41851849" />
          <path
             id="rect15696"
             d="M -144.47724,83.996172 L -144.47724,84.950033 L -143.5315,84.950033 L -143.5315,83.996172 L -144.47724,83.996172 z"
             style="fill:#808080;fill-opacity:0.68518521;fill-rule:evenodd;stroke:#484040;stroke-width:0.09649903;stroke-linecap:butt;stroke-linejoin:miter;stroke-miterlimit:2;stroke-dasharray:none;stroke-dashoffset:0;stroke-opacity:0.41851849" />
        </g>
      </g>
      <g
         transform="matrix(0.7737791,0,0,0.7737791,-197.90402,25.09191)"
         id="g3922">
        <path
           sodipodi:type="arc"
           style="fill:#808080;fill-opacity:1;fill-rule:evenodd;stroke:#1b1b1b;stroke-width:2.20000005;stroke-linecap:butt;stroke-linejoin:round;stroke-miterlimit:4;stroke-dasharray:none;stroke-dashoffset:0;stroke-opacity:1;filter:url(#filter3750)"
           id="path3924"
           sodipodi:cx="-35.619049"
           sodipodi:cy="24.444445"
           sodipodi:rx="3.8730159"
           sodipodi:ry="3.8730159"
           d="M -31.746033,24.444445 A 3.8730159,3.8730159 0 1 1 -39.492065,24.444445 A 3.8730159,3.8730159 0 1 1 -31.746033,24.444445 z"
           transform="translate(296.35501,-41.167468)" />
        <path
           style="fill:none;fill-opacity:1;fill-rule:evenodd;stroke:#0e0e0e;stroke-width:0.5;stroke-linecap:butt;stroke-linejoin:round;stroke-miterlimit:4;stroke-dasharray:none;stroke-dashoffset:0;stroke-opacity:0.78125"
           d="M 260.73596,-21.348023 C 258.19226,-21.348023 256.11096,-19.266725 256.11096,-16.723023 C 256.11096,-14.179321 258.19226,-12.098024 260.73596,-12.098023 C 263.27966,-12.098023 265.36096,-14.179321 265.36096,-16.723023 C 265.36096,-19.266725 263.27966,-21.348022 260.73596,-21.348023 z"
           id="path3926"
           sodipodi:nodetypes="csssc" />
        <path
           sodipodi:type="arc"
           style="fill:url(#linearGradient5576);fill-opacity:1;fill-rule:evenodd;stroke:#ffffff;stroke-width:1.5;stroke-linecap:butt;stroke-linejoin:round;stroke-miterlimit:4;stroke-dasharray:none;stroke-dashoffset:0;stroke-opacity:1"
           id="path3928"
           sodipodi:cx="-35.619049"
           sodipodi:cy="24.444445"
           sodipodi:rx="3.8730159"
           sodipodi:ry="3.8730159"
           d="M -31.746033,24.444445 A 3.8730159,3.8730159 0 1 1 -39.492065,24.444445 A 3.8730159,3.8730159 0 1 1 -31.746033,24.444445 z"
           transform="translate(296.35501,-41.167468)" />
        <path
           style="fill:none;fill-opacity:1;fill-rule:evenodd;stroke:#454545;stroke-width:0.1;stroke-linecap:butt;stroke-linejoin:round;stroke-miterlimit:4;stroke-dasharray:none;stroke-dashoffset:0;stroke-opacity:0.59722218"
           d="M 260.73596,-19.848023 C 262.46807,-19.848023 263.86096,-18.455131 263.86096,-16.723023 C 263.86096,-14.990915 262.46807,-13.598023 260.73596,-13.598023 C 259.00385,-13.598023 257.61096,-14.990915 257.61096,-16.723023 C 257.61096,-18.455131 259.00385,-19.848023 260.73596,-19.848023 z"
           id="path3930"
           sodipodi:nodetypes="csssc" />
      </g>
    </g>
  </g>
</svg>
