<?xml version="1.0" encoding="UTF-8" standalone="no"?>
<!-- Created with Inkscape (http://www.inkscape.org/) -->

<svg
   xmlns:svg="http://www.w3.org/2000/svg"
   xmlns="http://www.w3.org/2000/svg"
   xmlns:xlink="http://www.w3.org/1999/xlink"
   version="1.1"
   width="16"
   height="16"
   id="svg2910">
  <defs
     id="defs2912">
    <linearGradient
       id="linearGradient3712">
      <stop
         id="stop3714"
         style="stop-color:#ec1c1c;stop-opacity:1"
         offset="0" />
      <stop
         id="stop3716"
         style="stop-color:#7f0404;stop-opacity:1"
         offset="1" />
    </linearGradient>
    <linearGradient
       id="linearGradient3700">
      <stop
         id="stop3702"
         style="stop-color:#ff8b8b;stop-opacity:1"
         offset="0" />
      <stop
         id="stop3704"
         style="stop-color:#ff0000;stop-opacity:1"
         offset="1" />
    </linearGradient>
    <linearGradient
       id="linearGradient4243">
      <stop
         id="stop4245"
         style="stop-color:#ebb215;stop-opacity:0.78431374"
         offset="0" />
      <stop
         id="stop4253"
         style="stop-color:#ebb215;stop-opacity:0.78431374"
         offset="0.37655047" />
      <stop
         id="stop4251"
         style="stop-color:#ebb215;stop-opacity:0.56862748"
         offset="0.62308282" />
      <stop
         id="stop4247"
         style="stop-color:#ebb215;stop-opacity:0"
         offset="1" />
    </linearGradient>
    <radialGradient
       cx="2.3675451"
       cy="5.6143689"
       r="6.2187514"
       fx="2.3675451"
       fy="5.6143689"
       id="radialGradient3716"
       xlink:href="#linearGradient4243"
       gradientUnits="userSpaceOnUse" />
    <radialGradient
       cx="12.210238"
       cy="11.497804"
       r="3.3177967"
       fx="12.210238"
       fy="11.497804"
       id="radialGradient3710"
       xlink:href="#linearGradient3700"
       gradientUnits="userSpaceOnUse" />
    <radialGradient
       cx="11.63785"
       cy="11.432981"
       r="3.3177967"
       fx="11.63785"
       fy="11.432981"
       id="radialGradient3718"
       xlink:href="#linearGradient3712"
       gradientUnits="userSpaceOnUse"
       gradientTransform="matrix(1.4339993,0.85442302,-0.51186078,0.85906844,0.69577751,-8.3291827)" />
    <radialGradient
       cx="2.3675451"
       cy="5.6143689"
       r="6.2187514"
       fx="2.3675451"
       fy="5.6143689"
       id="radialGradient3737"
       xlink:href="#linearGradient4243"
       gradientUnits="userSpaceOnUse"
       gradientTransform="matrix(1.0881849,0,0,1.0881849,5.4236732,1.8905)" />
  </defs>
  <path
     d="m 13.267152,7.9999521 a 5.2671516,5.2671516 0 0 1 -10.5343033,0 5.2671516,5.2671516 0 1 1 10.5343033,0 z"
     id="path3194"
     style="fill:#ffffff;fill-opacity:1;stroke:#ebb215;stroke-width:0.8469789px;stroke-linecap:butt;stroke-linejoin:miter;stroke-opacity:1" />
  <path
     d="m 14.767152,7.9999715 a 6.7671516,6.7671516 0 0 1 -13.5343033,0 6.7671516,6.7671516 0 1 1 13.5343033,0 z"
     id="path3194-3"
     style="fill:url(#radialGradient3737);fill-opacity:1;stroke:none" />
  <path
     d="m 3.325952,5.1851 c 0,0 -0.3049829,-0.16 -0.4613439,-0.4076 C 2.7389463,4.5778 2.7466493,4.1572 2.4945538,3.9725 2.281736,3.8161 2.0573885,3.9455 2.0573885,3.9455 L 1.8900886,3.1224 c 0,0 0.7512899,-0.2231 1.088003,-0.011 C 3.6714067,3.5337 3.2701548,4.2155 3.8471221,4.4177 3.5849511,4.7461 3.325952,5.1856 3.325952,5.1856 z"
     id="path3970"
     style="fill:#ebb215;fill-opacity:1;stroke:none" />
  <path
     d="m 12.800509,5.3685 c 0,0 0.290983,-0.1841 0.583644,-0.1957 0.235762,-0.01 0.596159,0.208 0.882154,0.082 0.241818,-0.1061 0.242065,-0.365 0.242065,-0.365 l 0.7965,0.2666 c 0,0 -0.18249,0.7622 -0.534203,0.9479 -0.712315,0.3894 -1.102163,-0.2991 -1.56573,0.1 C 13.05161,5.8131 12.800509,5.369 12.800509,5.369 z"
     id="path3970-6"
     style="fill:#ebb215;fill-opacity:1;stroke:none" />
  <path
     d="m 10.837075,3.3276 c 0,0 0.159916,-0.305 0.407577,-0.4614 0.199683,-0.1257 0.620281,-0.1179 0.804973,-0.37 0.156357,-0.2129 0.02711,-0.4372 0.02711,-0.4372 l 0.823129,-0.1673 c 0,0 0.223036,0.7513 0.01131,1.088 C 12.488949,3.673 11.807128,3.2718 11.604959,3.8487 11.276545,3.5866 10.837066,3.3276 10.837066,3.3276 z"
     id="path3970-8"
     style="fill:#ebb215;fill-opacity:1;stroke:none" />
  <path
     d="m 8.1161987,2.5417 c 0,0 -0.014,-0.3441 0.1223,-0.6033 0.1101,-0.2087 0.4782,-0.4123 0.5121,-0.723 0.029,-0.2624 -0.1951,-0.3921 -0.1951,-0.3921 l 0.6292,-0.5565 c 0,0 0.5688,0.5392 0.5538,0.9366 -0.019,0.8116 -0.8101,0.805 -0.6967,1.4057 -0.4155,-0.063 -0.9256,-0.067 -0.9256,-0.067 z"
     id="path3970-87"
     style="fill:#ebb215;fill-opacity:1;stroke:none" />
  <path
     d="m 5.366937,3.2216 c 0,0 -0.1841649,-0.291 -0.1957471,-0.5836 C 5.1622099,2.4022 5.3791752,2.0418 5.2531999,1.7558 5.1470726,1.514 4.8881613,1.5138 4.8881613,1.5138 L 5.1548395,0.7173 c 0,0 0.7621543,0.1824 0.9478954,0.5342 0.389316,0.7123 -0.2990887,1.1021 0.099495,1.5657 C 5.8109763,2.9705 5.3669368,3.2216 5.3669368,3.2216 z"
     id="path3970-0"
     style="fill:#ebb215;fill-opacity:1;stroke:none" />
  <path
     d="m 13.4804,8.1178 c 0,0 0.344081,-0.014 0.603324,0.1223 0.208668,0.1101 0.412296,0.4782 0.722963,0.5121 0.262484,0.029 0.392154,-0.1951 0.392154,-0.1951 l 0.55645,0.6292 c 0,0 -0.539118,0.5688 -0.936581,0.5538 C 14.007169,9.7211 14.013753,8.93 13.413,9.0434 13.47584,8.6279 13.4804,8.1178 13.4804,8.1178 z"
     id="path3970-3"
     style="fill:#ebb215;fill-opacity:1;stroke:none" />
  <path
     d="m 2.5401242,7.9059 c 0,0 -0.344081,0.014 -0.603324,-0.1223 C 1.7281322,7.6735 1.5245042,7.3054 1.2138372,7.2715 0.9513532,7.2425 0.8216832,7.4666 0.8216832,7.4666 l -0.55645,-0.6292 c 0,0 0.539118,-0.5688 0.936581,-0.5538 0.811541,0.019 0.804957,0.8101 1.40571,0.6967 -0.06284,0.4155 -0.0674,0.9256 -0.0674,0.9256 z"
     id="path3970-3-3"
     style="fill:#ebb215;fill-opacity:1;stroke:none" />
  <path
     d="m 3.2200154,10.6552 c 0,0 -0.2909829,0.1842 -0.5836439,0.1957 C 2.4006097,10.8609 2.0402127,10.643 1.7542172,10.7689 1.5123994,10.8751 1.5121518,11.134 1.5121518,11.134 L 0.715652,10.8673 c 0,0 0.18248988,-0.7622 0.5342029,-0.9479 0.7123152,-0.3893 1.1021633,0.2991 1.5657306,-0.1 0.153329,0.3912 0.4044299,0.8353 0.4044299,0.8353 z"
     id="path3970-3-2"
     style="fill:#ebb215;fill-opacity:1;stroke:none" />
  <path
     d="m 5.1834493,12.6962 c 0,0 -0.1599161,0.305 -0.4075769,0.4613 -0.1996834,0.1257 -0.6202813,0.118 -0.8049731,0.3701 -0.1563567,0.2128 -0.027115,0.4371 -0.027115,0.4371 L 3.1206561,14.132 c 0,0 -0.2230363,-0.7513 -0.011314,-1.088 0.422225,-0.6933 1.1040457,-0.292 1.3062149,-0.869 0.3284136,0.2622 0.7678931,0.5212 0.7678931,0.5212 z"
     id="path3970-3-4"
     style="fill:#ebb215;fill-opacity:1;stroke:none" />
  <path
     d="m 7.9043255,13.482 c 0,0 0.014,0.3441 -0.1223,0.6033 -0.1101,0.2087 -0.4782,0.4123 -0.5121,0.723 -0.029,0.2625 0.1951,0.3921 0.1951,0.3921 l -0.6292,0.5565 c 0,0 -0.5688,-0.5391 -0.5538,-0.9366 0.019,-0.8115 0.8101,-0.8049 0.6967,-1.4057 0.4155,0.063 0.9256,0.067 0.9256,0.067 z"
     id="path3970-3-5"
     style="fill:#ebb215;fill-opacity:1;stroke:none" />
  <path
     d="m 10.653587,12.8021 c 0,0 0.184165,0.291 0.195747,0.5837 0.009,0.2357 -0.207985,0.5961 -0.08201,0.8821 0.106127,0.2418 0.365039,0.2421 0.365039,0.2421 l -0.266678,0.7965 c 0,0 -0.762155,-0.1825 -0.9478958,-0.5342 -0.389316,-0.7123 0.2990888,-1.1022 -0.099495,-1.5658 0.3912538,-0.1533 0.8352928,-0.4044 0.8352928,-0.4044 z"
     id="path3970-3-20"
     style="fill:#ebb215;fill-opacity:1;stroke:none" />
  <path
     d="m 12.694572,10.8387 c 0,0 0.304983,0.1599 0.461344,0.4076 0.125662,0.1996 0.117959,0.6202 0.370054,0.8049 0.212818,0.1564 0.437166,0.027 0.437166,0.027 l 0.1673,0.8232 c 0,0 -0.75129,0.223 -1.088003,0.011 -0.693315,-0.4222 -0.292064,-1.1041 -0.869031,-1.3062 0.262171,-0.3284 0.52117,-0.7679 0.52117,-0.7679 z"
     id="path3970-3-36"
     style="fill:#ebb215;fill-opacity:1;stroke:none" />
  <path
     d="m 16.101695,12.762712 a 3.0677967,3.0677967 0 1 1 -6.1355934,0 3.0677967,3.0677967 0 1 1 6.1355934,0 z"
     transform="matrix(1.1001276,0,0,1.1001277,-1.9889523,-1.690613)"
     id="path2926"
     style="fill:#ff0c0c;fill-opacity:1;stroke:url(#radialGradient3718);stroke-width:0.5;stroke-opacity:1" />
  <rect
     width="4"
     height="1.5"
     x="10.4"
     y="11.6"
     id="rect3720"
     style="fill:#ffffff;fill-opacity:1;stroke:none" />
  <path
     d="m 15.351563,8.125056 a 1.0390625,1.1171876 0 0 1 -2.078125,0 1.0390625,1.1171876 0 1 1 2.078125,0 z"
     id="path2938"
     style="fill:#2773c9;fill-opacity:1;fill-rule:evenodd;stroke:none" />
  <path
     d="m 12.7,9.875 2.6125,0 0,5.525 0.6875,0 0,0.6 -3.3,0 0,-0.6 0.8,0 0,-4.8 -0.8,0 0,-0.725 z"
     id="rect3712"
     style="fill:#2773c9;fill-opacity:1;stroke:none" />
</svg>
