<?xml version="1.0" encoding="UTF-8" standalone="no"?>
<!-- Created with Inkscape (http://www.inkscape.org/) -->

<svg
   xmlns:svg="http://www.w3.org/2000/svg"
   xmlns="http://www.w3.org/2000/svg"
   xmlns:xlink="http://www.w3.org/1999/xlink"
   version="1.1"
   width="16"
   height="16"
   id="svg2910">
  <defs
     id="defs2912">
    <linearGradient
       id="linearGradient4243">
      <stop
         id="stop4245"
         style="stop-color:#808080;stop-opacity:0.78431374"
         offset="0" />
      <stop
         id="stop4253"
         style="stop-color:#808080;stop-opacity:0.78431374"
         offset="0.37655047" />
      <stop
         id="stop4251"
         style="stop-color:#808080;stop-opacity:0.56862748"
         offset="0.62308282" />
      <stop
         id="stop4247"
         style="stop-color:#808080;stop-opacity:0"
         offset="1" />
    </linearGradient>
    <radialGradient
       cx="2.3675451"
       cy="5.6143689"
       r="6.2187514"
       fx="2.3675451"
       fy="5.6143689"
       id="radialGradient3716"
       xlink:href="#linearGradient4243"
       gradientUnits="userSpaceOnUse" />
    <linearGradient
       x1="45.656044"
       y1="13.523755"
       x2="27.156042"
       y2="13.523755"
       id="linearGradient16913"
       xlink:href="#linearGradient3212"
       gradientUnits="userSpaceOnUse" />
    <linearGradient
       id="linearGradient3212">
      <stop
         id="stop3214"
         style="stop-color:#525252;stop-opacity:1"
         offset="0" />
      <stop
         id="stop3216"
         style="stop-color:#ababab;stop-opacity:1"
         offset="1" />
    </linearGradient>
  </defs>
  <g
     transform="translate(0,-1036.3622)"
     id="layer1">
    <path
       d="m 8.5862966,5.6143689 a 6.2187514,6.2187514 0 1 1 -12.4375029,0 6.2187514,6.2187514 0 1 1 12.4375029,0 z"
       transform="matrix(0.84697892,0,0,0.84697892,5.9947393,1039.6069)"
       id="path3194"
       style="fill:#ffffff;fill-opacity:1;stroke:#808080;stroke-width:1px;stroke-linecap:butt;stroke-linejoin:miter;stroke-opacity:1" />
    <path
       d="m 8.5862966,5.6143689 a 6.2187514,6.2187514 0 1 1 -12.4375029,0 6.2187514,6.2187514 0 1 1 12.4375029,0 z"
       transform="matrix(1.0881849,0,0,1.0881849,5.4236732,1038.2527)"
       id="path3194-3"
       style="fill:url(#radialGradient3716);fill-opacity:1;stroke:none" />
    <path
       d="m 3.325952,1041.5473 c 0,0 -0.3049829,-0.16 -0.4613439,-0.4076 -0.1256618,-0.1997 -0.1179588,-0.6203 -0.3700543,-0.805 -0.2128178,-0.1564 -0.4371653,-0.027 -0.4371653,-0.027 l -0.1672999,-0.8231 c 0,0 0.7512899,-0.2231 1.088003,-0.011 0.6933151,0.4223 0.2920632,1.1041 0.8690305,1.3063 -0.262171,0.3284 -0.5211701,0.7679 -0.5211701,0.7679 z"
       id="path3970"
       style="fill:#808080;fill-opacity:1;stroke:none" />
    <path
       d="m 12.800509,1041.7307 c 0,0 0.290983,-0.1841 0.583644,-0.1957 0.235762,-0.01 0.596159,0.208 0.882154,0.082 0.241818,-0.1061 0.242065,-0.365 0.242065,-0.365 l 0.7965,0.2666 c 0,0 -0.18249,0.7622 -0.534203,0.9479 -0.712315,0.3894 -1.102163,-0.2991 -1.56573,0.1 -0.153329,-0.3912 -0.40443,-0.8353 -0.40443,-0.8353 z"
       id="path3970-6"
       style="fill:#808080;fill-opacity:1;stroke:none" />
    <path
       d="m 10.837075,1039.6898 c 0,0 0.159916,-0.305 0.407577,-0.4614 0.199683,-0.1257 0.620281,-0.1179 0.804973,-0.37 0.156357,-0.2129 0.02711,-0.4372 0.02711,-0.4372 l 0.823129,-0.1673 c 0,0 0.223036,0.7513 0.01131,1.088 -0.422225,0.6933 -1.104046,0.2921 -1.306215,0.869 -0.328414,-0.2621 -0.767893,-0.5211 -0.767893,-0.5211 z"
       id="path3970-8"
       style="fill:#808080;fill-opacity:1;stroke:none" />
    <path
       d="m 8.1161987,1038.9039 c 0,0 -0.014,-0.3441 0.1223,-0.6033 0.1101,-0.2087 0.4782,-0.4123 0.5121,-0.723 0.029,-0.2624 -0.1951,-0.3921 -0.1951,-0.3921 l 0.6292,-0.5565 c 0,0 0.5688,0.5392 0.5538,0.9366 -0.019,0.8116 -0.8101,0.805 -0.6967,1.4057 -0.4155,-0.063 -0.9256,-0.067 -0.9256,-0.067 z"
       id="path3970-87"
       style="fill:#808080;fill-opacity:1;stroke:none" />
    <path
       d="m 5.366937,1039.5838 c 0,0 -0.1841649,-0.291 -0.1957471,-0.5836 -0.00898,-0.2358 0.2079853,-0.5962 0.08201,-0.8822 -0.1061273,-0.2418 -0.3650386,-0.242 -0.3650386,-0.242 l 0.2666782,-0.7965 c 0,0 0.7621543,0.1824 0.9478954,0.5342 0.389316,0.7123 -0.2990887,1.1021 0.099495,1.5657 -0.3912536,0.1533 -0.8352931,0.4044 -0.8352931,0.4044 z"
       id="path3970-0"
       style="fill:#808080;fill-opacity:1;stroke:none" />
    <path
       d="m 13.4804,1044.48 c 0,0 0.344081,-0.014 0.603324,0.1223 0.208668,0.1101 0.412296,0.4782 0.722963,0.5121 0.262484,0.029 0.392154,-0.1951 0.392154,-0.1951 l 0.55645,0.6292 c 0,0 -0.539118,0.5688 -0.936581,0.5538 -0.811541,-0.019 -0.804957,-0.8101 -1.40571,-0.6967 0.06284,-0.4155 0.0674,-0.9256 0.0674,-0.9256 z"
       id="path3970-3"
       style="fill:#808080;fill-opacity:1;stroke:none" />
    <path
       d="m 2.5401242,1044.2681 c 0,0 -0.344081,0.014 -0.603324,-0.1223 -0.208668,-0.1101 -0.412296,-0.4782 -0.722963,-0.5121 -0.262484,-0.029 -0.392154,0.1951 -0.392154,0.1951 l -0.55645,-0.6292 c 0,0 0.539118,-0.5688 0.936581,-0.5538 0.811541,0.019 0.804957,0.8101 1.40571,0.6967 -0.06284,0.4155 -0.0674,0.9256 -0.0674,0.9256 z"
       id="path3970-3-3"
       style="fill:#808080;fill-opacity:1;stroke:none" />
    <path
       d="m 3.2200154,1047.0174 c 0,0 -0.2909829,0.1842 -0.5836439,0.1957 -0.2357618,0.01 -0.5961588,-0.2079 -0.8821543,-0.082 -0.2418178,0.1062 -0.2420654,0.3651 -0.2420654,0.3651 l -0.7964998,-0.2667 c 0,0 0.18248988,-0.7622 0.5342029,-0.9479 0.7123152,-0.3893 1.1021633,0.2991 1.5657306,-0.1 0.153329,0.3912 0.4044299,0.8353 0.4044299,0.8353 z"
       id="path3970-3-2"
       style="fill:#808080;fill-opacity:1;stroke:none" />
    <path
       d="m 5.1834493,1049.0584 c 0,0 -0.1599161,0.305 -0.4075769,0.4613 -0.1996834,0.1257 -0.6202813,0.118 -0.8049731,0.3701 -0.1563567,0.2128 -0.027115,0.4371 -0.027115,0.4371 l -0.8231282,0.1673 c 0,0 -0.2230363,-0.7513 -0.011314,-1.088 0.422225,-0.6933 1.1040457,-0.292 1.3062149,-0.869 0.3284136,0.2622 0.7678931,0.5212 0.7678931,0.5212 z"
       id="path3970-3-4"
       style="fill:#808080;fill-opacity:1;stroke:none" />
    <path
       d="m 7.9043255,1049.8442 c 0,0 0.014,0.3441 -0.1223,0.6033 -0.1101,0.2087 -0.4782,0.4123 -0.5121,0.723 -0.029,0.2625 0.1951,0.3921 0.1951,0.3921 l -0.6292,0.5565 c 0,0 -0.5688,-0.5391 -0.5538,-0.9366 0.019,-0.8115 0.8101,-0.8049 0.6967,-1.4057 0.4155,0.063 0.9256,0.067 0.9256,0.067 z"
       id="path3970-3-5"
       style="fill:#808080;fill-opacity:1;stroke:none" />
    <path
       d="m 10.653587,1049.1643 c 0,0 0.184165,0.291 0.195747,0.5837 0.009,0.2357 -0.207985,0.5961 -0.08201,0.8821 0.106127,0.2418 0.365039,0.2421 0.365039,0.2421 l -0.266678,0.7965 c 0,0 -0.762155,-0.1825 -0.9478958,-0.5342 -0.389316,-0.7123 0.2990888,-1.1022 -0.099495,-1.5658 0.3912538,-0.1533 0.8352928,-0.4044 0.8352928,-0.4044 z"
       id="path3970-3-20"
       style="fill:#808080;fill-opacity:1;stroke:none" />
    <path
       d="m 12.694572,1047.2009 c 0,0 0.304983,0.1599 0.461344,0.4076 0.125662,0.1996 0.117959,0.6202 0.370054,0.8049 0.212818,0.1564 0.437166,0.027 0.437166,0.027 l 0.1673,0.8232 c 0,0 -0.75129,0.223 -1.088003,0.011 -0.693315,-0.4222 -0.292064,-1.1041 -0.869031,-1.3062 0.262171,-0.3284 0.52117,-0.7679 0.52117,-0.7679 z"
       id="path3970-3-36"
       style="fill:#808080;fill-opacity:1;stroke:none" />
    <path
       d="m 14.59375,7.5625 a 0.71875,0.71875 0 1 1 -1.4375,0 0.71875,0.71875 0 1 1 1.4375,0 z"
       transform="matrix(1.4456522,0,0,1.5543479,-5.7459239,1032.7325)"
       id="path2938"
       style="fill:#2773c9;fill-opacity:1;fill-rule:evenodd;stroke:none" />
    <path
       d="m 12.7,1046.2372 2.6125,0 0,5.525 0.6875,0 0,0.6 -3.3,0 0,-0.6 0.8,0 0,-4.8 -0.8,0 0,-0.725 z"
       id="rect3712"
       style="fill:#2773c9;fill-opacity:1;stroke:none" />
  </g>
  <g
     transform="matrix(0.3304282,0,0,0.3130481,-2.3411159,5.9641353)"
     id="g16826">
    <g
       transform="matrix(0.9836494,0,0,0.9836494,-19.645671,0.1760893)"
       id="g7117">
      <path
         d="m 30.444115,3.9642856 11.862771,0 c 0,-0.1393165 0.04992,-2.5006105 0.04992,-2.9312635 0,-0.42985151 2.549233,-0.43698345 2.549233,0 0,0.4148876 0,28.8193149 0,28.8193149 0,0.991948 -1.13198,1.79052 -2.538072,1.79052 l -11.923856,0 c -1.406092,0 -2.538072,-0.798572 -2.538072,-1.79052 l 0,-24.0975313 c 0,-0.9919481 1.13198,-1.7905201 2.538072,-1.7905201 z"
         id="rect2236"
         style="fill:#d6d6d6;fill-opacity:1;fill-rule:nonzero;stroke:url(#linearGradient16913);stroke-width:1.5;stroke-linecap:butt;stroke-linejoin:miter;stroke-miterlimit:4;stroke-opacity:1;stroke-dashoffset:0" />
      <rect
         width="9.6343298"
         height="7.3362327"
         rx="2.5380721"
         ry="0"
         x="31.466251"
         y="7.9583697"
         id="rect3220"
         style="fill:#a2daf7;fill-opacity:1;fill-rule:nonzero;stroke:#219df7;stroke-width:1.5;stroke-linecap:butt;stroke-linejoin:miter;stroke-miterlimit:4;stroke-opacity:1;stroke-dasharray:none;stroke-dashoffset:0" />
      <path
         d="m 40.662256,18.770293 c 0.112414,0.324352 -0.08141,0.680515 -0.426382,0.782712 -0.344976,0.102198 -0.712778,-0.07929 -0.820988,-0.405096 -0.108209,-0.32581 0.08395,-0.67318 0.428926,-0.775377 0.339495,-0.100574 0.707719,0.07828 0.818444,0.397761 z"
         id="path4191"
         style="fill:#d4525e;fill-opacity:1;fill-rule:nonzero;stroke:#d4525e;stroke-width:1.23504269;stroke-linecap:butt;stroke-linejoin:miter;stroke-miterlimit:4;stroke-opacity:1;stroke-dashoffset:0" />
      <path
         d="m 35.055371,18.824523 c 0.257047,0.233077 -0.186144,0.489012 -0.97497,0.56245 -0.788826,0.07344 -1.629846,-0.05697 -1.877281,-0.291098 -0.247431,-0.234124 0.191961,-0.483742 0.980787,-0.557179 0.776293,-0.07227 1.618279,0.05625 1.871464,0.285827 z"
         id="path5163"
         style="fill:#78be6f;fill-opacity:1;fill-rule:nonzero;stroke:#78be6f;stroke-width:1.58313918;stroke-linecap:butt;stroke-linejoin:miter;stroke-miterlimit:4;stroke-opacity:1;stroke-dashoffset:0" />
      <path
         d="m 40.662256,23.366487 c 0.112414,0.324352 -0.08141,0.680515 -0.426382,0.782712 -0.344976,0.102198 -0.712778,-0.07929 -0.820988,-0.405096 -0.108209,-0.32581 0.08395,-0.67318 0.428926,-0.775377 0.339495,-0.100574 0.707719,0.07828 0.818444,0.397761 z"
         id="path6134"
         style="fill:#a0a0a0;fill-opacity:1;fill-rule:nonzero;stroke:#a0a0a0;stroke-width:1.23504269;stroke-linecap:butt;stroke-linejoin:miter;stroke-miterlimit:4;stroke-opacity:1;stroke-dashoffset:0" />
      <path
         d="m 37.038334,23.366487 c 0.112414,0.324352 -0.08141,0.680515 -0.426382,0.782712 -0.344976,0.102198 -0.712778,-0.07929 -0.820988,-0.405096 -0.108209,-0.32581 0.08395,-0.67318 0.428926,-0.775377 0.339495,-0.100574 0.707719,0.07828 0.818444,0.397761 z"
         id="path7107"
         style="fill:#a0a0a0;fill-opacity:1;fill-rule:nonzero;stroke:#a0a0a0;stroke-width:1.23504269;stroke-linecap:butt;stroke-linejoin:miter;stroke-miterlimit:4;stroke-opacity:1;stroke-dashoffset:0" />
      <path
         d="m 33.237635,23.366487 c 0.112414,0.324352 -0.08141,0.680515 -0.426382,0.782712 -0.344976,0.102198 -0.712778,-0.07929 -0.820988,-0.405096 -0.108209,-0.32581 0.08395,-0.67318 0.428926,-0.775377 0.339495,-0.100574 0.707719,0.07828 0.818444,0.397761 z"
         id="path7109"
         style="fill:#a0a0a0;fill-opacity:1;fill-rule:nonzero;stroke:#a0a0a0;stroke-width:1.23504269;stroke-linecap:butt;stroke-linejoin:miter;stroke-miterlimit:4;stroke-opacity:1;stroke-dashoffset:0" />
      <path
         d="m 40.662256,27.255574 c 0.112414,0.324352 -0.08141,0.680515 -0.426382,0.782712 -0.344976,0.102198 -0.712778,-0.07929 -0.820988,-0.405096 -0.108209,-0.32581 0.08395,-0.67318 0.428926,-0.775377 0.339495,-0.100574 0.707719,0.07828 0.818444,0.397761 z"
         id="path7111"
         style="fill:#a0a0a0;fill-opacity:1;fill-rule:nonzero;stroke:#a0a0a0;stroke-width:1.23504269;stroke-linecap:butt;stroke-linejoin:miter;stroke-miterlimit:4;stroke-opacity:1;stroke-dashoffset:0" />
      <path
         d="m 37.038334,27.255574 c 0.112414,0.324352 -0.08141,0.680515 -0.426382,0.782712 -0.344976,0.102198 -0.712778,-0.07929 -0.820988,-0.405096 -0.108209,-0.32581 0.08395,-0.67318 0.428926,-0.775377 0.339495,-0.100574 0.707719,0.07828 0.818444,0.397761 z"
         id="path7113"
         style="fill:#a0a0a0;fill-opacity:1;fill-rule:nonzero;stroke:#a0a0a0;stroke-width:1.23504269;stroke-linecap:butt;stroke-linejoin:miter;stroke-miterlimit:4;stroke-opacity:1;stroke-dashoffset:0" />
      <path
         d="m 33.237635,27.255574 c 0.112414,0.324352 -0.08141,0.680515 -0.426382,0.782712 -0.344976,0.102198 -0.712778,-0.07929 -0.820988,-0.405096 -0.108209,-0.32581 0.08395,-0.67318 0.428926,-0.775377 0.339495,-0.100574 0.707719,0.07828 0.818444,0.397761 z"
         id="path7115"
         style="fill:#a0a0a0;fill-opacity:1;fill-rule:nonzero;stroke:#a0a0a0;stroke-width:1.23504269;stroke-linecap:butt;stroke-linejoin:miter;stroke-miterlimit:4;stroke-opacity:1;stroke-dashoffset:0" />
    </g>
  </g>
</svg>
