<?xml version="1.0" encoding="UTF-8" standalone="no"?>
<!-- Created with Inkscape (http://www.inkscape.org/) -->

<svg
   xmlns:dc="http://purl.org/dc/elements/1.1/"
   xmlns:cc="http://creativecommons.org/ns#"
   xmlns:rdf="http://www.w3.org/1999/02/22-rdf-syntax-ns#"
   xmlns:svg="http://www.w3.org/2000/svg"
   xmlns="http://www.w3.org/2000/svg"
   xmlns:xlink="http://www.w3.org/1999/xlink"
   xmlns:sodipodi="http://sodipodi.sourceforge.net/DTD/sodipodi-0.dtd"
   xmlns:inkscape="http://www.inkscape.org/namespaces/inkscape"
   width="16"
   height="16"
   id="svg6020"
   sodipodi:version="0.32"
   inkscape:version="0.48.3.1 r9886"
   version="1.0"
   sodipodi:docname="invisible.svg"
   inkscape:output_extension="org.inkscape.output.svg.inkscape">
  <defs
     id="defs6022">
    <linearGradient
       id="linearGradient3605">
      <stop
         id="stop3607"
         offset="0"
         style="stop-color:#fc9400;stop-opacity:1" />
      <stop
         id="stop3609"
         offset="1"
         style="stop-color:#ffff00;stop-opacity:1;" />
    </linearGradient>
    <linearGradient
       id="linearGradient3894">
      <stop
         id="stop3896"
         offset="0"
         style="stop-color:#8d4402;stop-opacity:1;" />
      <stop
         id="stop3898"
         offset="1"
         style="stop-color:#8d4402;stop-opacity:0.76426798;" />
    </linearGradient>
    <linearGradient
       id="linearGradient6776">
      <stop
         id="stop6778"
         offset="0"
         style="stop-color:#0070ff;stop-opacity:1;" />
      <stop
         style="stop-color:#002dba;stop-opacity:0.49803922;"
         offset="0.36835089"
         id="stop6780" />
      <stop
         id="stop6782"
         offset="1"
         style="stop-color:#00ebff;stop-opacity:0;" />
    </linearGradient>
    <linearGradient
       id="linearGradient7643"
       inkscape:collect="always">
      <stop
         id="stop7645"
         offset="0"
         style="stop-color:#000000;stop-opacity:1;" />
      <stop
         id="stop7647"
         offset="1"
         style="stop-color:#000000;stop-opacity:0;" />
    </linearGradient>
    <filter
       id="filter6694"
       inkscape:collect="always">
      <feGaussianBlur
         id="feGaussianBlur6696"
         stdDeviation="0.0069072988"
         inkscape:collect="always" />
    </filter>
    <linearGradient
       id="linearGradient3682">
      <stop
         style="stop-color:#000000;stop-opacity:1;"
         offset="0"
         id="stop3684" />
      <stop
         style="stop-color:#000000;stop-opacity:0;"
         offset="1"
         id="stop3686" />
    </linearGradient>
    <filter
       id="filter3856"
       inkscape:collect="always">
      <feGaussianBlur
         id="feGaussianBlur3858"
         stdDeviation="0.48023163"
         inkscape:collect="always" />
    </filter>
    <linearGradient
       id="linearGradient8777">
      <stop
         id="stop8779"
         offset="0"
         style="stop-color:#ffffff;stop-opacity:1;" />
      <stop
         id="stop8781"
         offset="1"
         style="stop-color:#49ffe9;stop-opacity:0;" />
    </linearGradient>
    <filter
       id="filter6788"
       inkscape:collect="always">
      <feGaussianBlur
         id="feGaussianBlur6790"
         stdDeviation="0.096128255"
         inkscape:collect="always" />
    </filter>
    <linearGradient
       id="linearGradient3488">
      <stop
         id="stop3490"
         offset="0"
         style="stop-color:#434343;stop-opacity:1;" />
      <stop
         id="stop3492"
         offset="1"
         style="stop-color:#1f1f1f;stop-opacity:1;" />
    </linearGradient>
    <linearGradient
       id="linearGradient3496"
       inkscape:collect="always">
      <stop
         id="stop3498"
         offset="0"
         style="stop-color:#000000;stop-opacity:1;" />
      <stop
         id="stop3500"
         offset="1"
         style="stop-color:#000000;stop-opacity:0;" />
    </linearGradient>
    <linearGradient
       id="linearGradient8767">
      <stop
         offset="0"
         style="stop-color:#d8d8d8;stop-opacity:1;"
         id="stop8769" />
      <stop
         offset="1"
         style="stop-color:#383c47;stop-opacity:1;"
         id="stop8768" />
    </linearGradient>
    <linearGradient
       id="linearGradient3356"
       inkscape:collect="always">
      <stop
         id="stop3358"
         offset="0"
         style="stop-color:#000000;stop-opacity:1;" />
      <stop
         id="stop3360"
         offset="1"
         style="stop-color:#000000;stop-opacity:0;" />
    </linearGradient>
    <linearGradient
       id="linearGradient3535">
      <stop
         id="stop3537"
         style="stop-color:#d8d8d8;stop-opacity:1;"
         offset="0" />
      <stop
         id="stop3539"
         style="stop-color:#383c47;stop-opacity:0.34243175;"
         offset="1" />
    </linearGradient>
    <radialGradient
       inkscape:collect="always"
       xlink:href="#linearGradient7643"
       id="radialGradient3973"
       gradientUnits="userSpaceOnUse"
       gradientTransform="matrix(2.1658561,1.2894503e-7,-9.2356321e-8,2.1666711,17.102101,-11.463553)"
       cx="-14.669135"
       cy="9.8258677"
       fx="-14.669135"
       fy="9.8258677"
       r="6.8837447" />
    <linearGradient
       inkscape:collect="always"
       xlink:href="#linearGradient3682"
       id="linearGradient3975"
       gradientUnits="userSpaceOnUse"
       gradientTransform="translate(-0.28125,0.03125)"
       x1="-125.75"
       y1="-75.5625"
       x2="-141.0625"
       y2="-83.625" />
    <linearGradient
       inkscape:collect="always"
       xlink:href="#linearGradient6776"
       id="linearGradient3983"
       gradientUnits="userSpaceOnUse"
       gradientTransform="matrix(1.1463555,0,0,1.1463555,16.84144,32.065391)"
       x1="-136.74507"
       y1="-97.70565"
       x2="-132.40616"
       y2="-102.28151" />
    <linearGradient
       inkscape:collect="always"
       xlink:href="#linearGradient8767"
       id="linearGradient3989"
       gradientUnits="userSpaceOnUse"
       gradientTransform="translate(33.484371,-0.40625)"
       spreadMethod="reflect"
       x1="-161.89062"
       y1="-62.875"
       x2="-164.75"
       y2="-62.875" />
    <radialGradient
       inkscape:collect="always"
       xlink:href="#linearGradient3356"
       id="radialGradient3991"
       gradientUnits="userSpaceOnUse"
       gradientTransform="matrix(1.4017755,0,0,1.0619512,87.659122,3.4889268)"
       cx="-154.75"
       cy="-62.875"
       fx="-154.75"
       fy="-62.875"
       r="2.0625" />
    <linearGradient
       inkscape:collect="always"
       xlink:href="#linearGradient3535"
       id="linearGradient3993"
       gradientUnits="userSpaceOnUse"
       spreadMethod="reflect"
       x1="-128.44688"
       y1="-64.19207"
       x2="-131.38617"
       y2="-64.19207" />
    <linearGradient
       inkscape:collect="always"
       xlink:href="#linearGradient3535"
       id="linearGradient3995"
       gradientUnits="userSpaceOnUse"
       spreadMethod="reflect"
       x1="-128.42488"
       y1="-62.389999"
       x2="-131.25786"
       y2="-62.389999" />
    <linearGradient
       inkscape:collect="always"
       xlink:href="#linearGradient3535"
       id="linearGradient3997"
       gradientUnits="userSpaceOnUse"
       spreadMethod="reflect"
       x1="-128.43126"
       y1="-63.591034"
       x2="-131.37344"
       y2="-63.591034" />
    <linearGradient
       inkscape:collect="always"
       xlink:href="#linearGradient3535"
       id="linearGradient3999"
       gradientUnits="userSpaceOnUse"
       spreadMethod="reflect"
       x1="-128.3593"
       y1="-62.989998"
       x2="-131.38522"
       y2="-62.989998" />
    <linearGradient
       inkscape:collect="always"
       xlink:href="#linearGradient3488"
       id="linearGradient4008"
       gradientUnits="userSpaceOnUse"
       x1="-138.24599"
       y1="-76.256287"
       x2="-132.24574"
       y2="-76.256287"
       gradientTransform="matrix(0.9999056,0,0,0.993687,143.001,89.147219)" />
    <radialGradient
       inkscape:collect="always"
       xlink:href="#linearGradient3496"
       id="radialGradient4010"
       gradientUnits="userSpaceOnUse"
       gradientTransform="matrix(1.7948584,0,0,1.4924207,250.51509,127.1788)"
       cx="-135.24586"
       cy="-76.256287"
       fx="-135.24586"
       fy="-76.256287"
       r="3.0626223" />
    <radialGradient
       inkscape:collect="always"
       xlink:href="#linearGradient8777"
       id="radialGradient4014"
       gradientUnits="userSpaceOnUse"
       gradientTransform="matrix(0.43808174,0.40329651,0.26862174,-0.23225883,1.4090875,4.2860233)"
       cx="8.5236788"
       cy="14.238245"
       fx="8.0471926"
       fy="20.605503"
       r="8.5019808" />
  </defs>
  <sodipodi:namedview
     id="base"
     pagecolor="#ffffff"
     bordercolor="#666666"
     borderopacity="1.0"
     gridtolerance="10000"
     guidetolerance="10"
     objecttolerance="10"
     inkscape:pageopacity="0.0"
     inkscape:pageshadow="2"
     inkscape:zoom="7.9999999"
     inkscape:cx="-6.7603528"
     inkscape:cy="15.667377"
     inkscape:document-units="px"
     inkscape:current-layer="layer1"
     showgrid="false"
     inkscape:window-width="1438"
     inkscape:window-height="882"
     inkscape:window-x="33"
     inkscape:window-y="16"
     showguides="true"
     inkscape:guide-bbox="true"
     inkscape:window-maximized="0" />
  <metadata
     id="metadata6025">
    <rdf:RDF>
      <cc:Work
         rdf:about="">
        <dc:format>image/svg+xml</dc:format>
        <dc:type
           rdf:resource="http://purl.org/dc/dcmitype/StillImage" />
      </cc:Work>
    </rdf:RDF>
  </metadata>
  <g
     inkscape:label="Layer 1"
     inkscape:groupmode="layer"
     id="layer1">
    <g
       id="g4019">
      <path
         inkscape:connector-curvature="0"
         style="fill:none;stroke:url(#radialGradient3973);stroke-width:1.06266141;stroke-linecap:square;stroke-linejoin:round;stroke-miterlimit:4;stroke-opacity:1;stroke-dasharray:none;filter:url(#filter6694)"
         d="m -8.3176899,9.8194942 c 0.05343,2.8774148 -2.1080721,5.5884028 -4.9194321,6.1909968 -2.653135,0.658055 -5.621003,-0.640217 -6.945952,-3.029157 -1.460294,-2.445387 -0.968707,-5.8325629 1.128556,-7.760493 2.026257,-2.002828 5.434873,-2.3310667 7.806866,-0.7537044 1.8028461,1.1387676 2.9490312,3.217432 2.9299621,5.3523576 z"
         id="path5414"
         transform="matrix(0.99537753,0,0,0.83700442,22.369219,-2.4201487)" />
      <path
         inkscape:connector-curvature="0"
         style="fill:url(#linearGradient3975);fill-opacity:1;fill-rule:evenodd;stroke:none;filter:url(#filter3856)"
         d="m -134.34375,-89.6875 c -2.76534,-0.03187 -5.69123,1.518809 -6.68109,4.200183 -0.8654,2.357681 0.0515,5.268825 2.21864,6.590723 0.57405,0.485198 1.73223,0.440513 1.39995,1.444595 0.0466,0.82023 -0.10641,1.666789 0.12218,2.465701 0.30318,0.914016 1.27985,1.467914 2.21984,1.361298 0.78575,-0.03376 1.58856,0.08323 2.35931,-0.09443 0.95797,-0.286034 1.53069,-1.309972 1.42367,-2.278837 0.001,-0.740177 -0.002,-1.480338 -0.008,-2.220485 1.92901,-0.621564 3.51702,-2.291655 3.84273,-4.318721 0.4085,-1.94006 -0.34347,-4.026682 -1.84815,-5.305903 -1.37321,-1.222222 -3.22188,-1.84723 -5.04927,-1.844126 z"
         id="path5416"
         transform="matrix(0.95630392,0,0,0.95035648,136.8122,85.957576)" />
      <path
         inkscape:connector-curvature="0"
         style="fill:#00bfff;fill-opacity:1;fill-rule:evenodd;stroke:#4682b4;stroke-width:1.06266141000000003;stroke-linecap:square;stroke-linejoin:round;stroke-miterlimit:4;stroke-opacity:1;stroke-dasharray:none;filter:url(#filter6694)"
         d="m -8.3176899,9.8194942 c 0.05343,2.8774148 -2.1080721,5.5884028 -4.9194321,6.1909968 -2.653135,0.658055 -5.621003,-0.640217 -6.945952,-3.029157 -1.460294,-2.445387 -0.968707,-5.8325629 1.128556,-7.760493 2.026257,-2.002828 5.434873,-2.3310667 7.806866,-0.7537044 1.8028461,1.1387676 2.9490312,3.217432 2.9299621,5.3523576 z"
         id="path5418"
         transform="matrix(0.97830974,0,0,0.8226523,22.118852,-2.2791266)" />
      <path
         inkscape:connector-curvature="0"
         style="fill:url(#radialGradient4014);fill-opacity:1;fill-rule:evenodd;stroke:none;display:inline"
         d="M 13.101514,6.5100816 C 13.14171,4.5579268 11.827084,2.767446 10.062571,1.9892857 8.9424463,1.4765929 7.6892546,1.2021673 6.456801,1.2546946 4.5534207,1.5169863 2.5995851,2.5040136 1.7576946,4.3025821 0.69196524,6.5677333 1.3130666,9.3222257 2.7667894,11.273314 c 1.0042451,1.375755 2.7071944,2.44939 4.4726077,2.123011 1.9431466,-0.363933 3.3169069,-1.996011 4.2921549,-3.5924443 0.63063,-1.0432888 1.135623,-2.1573074 1.569962,-3.2937991 z"
         id="path5420" />
      <path
         inkscape:connector-curvature="0"
         style="fill:url(#linearGradient3983);fill-opacity:1;fill-rule:evenodd;stroke:none;filter:url(#filter6788)"
         d="m -134.93127,-88.751778 c -2.1538,-0.03134 -4.47389,1.2397 -5.08438,3.403571 -0.51637,1.742092 0.4576,3.626982 1.96821,4.527257 2.41147,1.556469 6.07824,1.033064 7.68393,-1.435582 0.97446,-1.431674 0.77524,-3.475456 -0.40521,-4.728886 -1.03606,-1.170401 -2.61713,-1.77104 -4.16255,-1.76636 z m 0,0.67936 c 1.84683,-0.03374 3.84443,1.086265 4.3033,2.965751 0.41582,1.593872 -0.59131,3.256689 -2.02253,3.945198 -2.10378,1.111861 -5.12022,0.497026 -6.30568,-1.658805 -0.76928,-1.342502 -0.34689,-3.137429 0.83046,-4.102178 0.87162,-0.767271 2.04111,-1.151925 3.19445,-1.149966 z"
         id="path5422"
         transform="matrix(0.95630392,0,0,0.95035648,136.81221,85.957576)" />
      <path
         inkscape:connector-curvature="0"
         style="fill:url(#linearGradient4008);fill-opacity:1;fill-rule:evenodd;stroke:url(#radialGradient4010);stroke-width:0.04983957;stroke-linecap:square;stroke-linejoin:miter;stroke-miterlimit:4;stroke-opacity:1;stroke-dasharray:none"
         d="m 4.7680604,10.888124 0,0.372633 0,1.925269 0,0.06211 0,0.310527 0,0.06211 c 0.033297,1.236084 1.0607599,2.235793 2.3122817,2.235795 l 1.3748702,0 c 1.2515219,0 2.2790047,-0.99971 2.3122817,-2.235795 5.5e-4,-0.02058 0,-0.0414 0,-0.06211 l 0,-0.372632 0,-1.925269 0,-0.372633 -0.374965,0 -1.9373167,0 -1.3748702,0 -1.9373171,0 -0.3749646,0 z"
         id="path5424" />
      <g
         id="g5426"
         transform="matrix(0.9999056,0,0,0.993687,137.0212,76.254097)">
        <path
           inkscape:connector-curvature="0"
           sodipodi:nodetypes="ccccccccc"
           id="path5428"
           d="m -131.26563,-64.78125 4,0 c 0,0.73578 0,0.576726 0,1.3125 l 0,0.375 c 0,0.73577 -0.57673,1.3125 -1.3125,1.3125 l -1.375,0 c -0.73577,-10e-7 -1.3125,-0.576726 -1.3125,-1.3125 l 0,-0.375 c 0,-0.735774 0,-0.57673 0,-1.3125 z"
           style="fill:url(#linearGradient3989);fill-opacity:1;fill-rule:evenodd;stroke:url(#radialGradient3991);stroke-width:0.2;stroke-linecap:square;stroke-linejoin:miter;stroke-miterlimit:4;stroke-opacity:1;stroke-dasharray:none" />
        <rect
           ry="0.094587512"
           y="-64.286659"
           x="-131.07022"
           height="0.18917502"
           width="3.609175"
           id="rect5430"
           style="fill:#000000;fill-opacity:0.5254902;fill-rule:evenodd;stroke:url(#linearGradient3993);stroke-width:0.1;stroke-linecap:square;stroke-linejoin:miter;stroke-miterlimit:4;stroke-opacity:1;stroke-dasharray:none" />
        <rect
           ry="0.099738106"
           y="-62.489738"
           x="-130.79724"
           height="0.19947621"
           width="3.063226"
           id="rect5432"
           style="fill:#000000;fill-opacity:0.52430558;fill-rule:evenodd;stroke:url(#linearGradient3995);stroke-width:0.1;stroke-linecap:butt;stroke-linejoin:round;stroke-miterlimit:4;stroke-opacity:1;stroke-dasharray:none;stroke-dashoffset:0" />
        <rect
           ry="0.094587512"
           y="-63.685623"
           x="-131.07022"
           height="0.18917502"
           width="3.609175"
           id="rect5434"
           style="fill:#000000;fill-opacity:0.5254902;fill-rule:evenodd;stroke:url(#linearGradient3997);stroke-width:0.1;stroke-linecap:square;stroke-linejoin:miter;stroke-miterlimit:4;stroke-opacity:1;stroke-dasharray:none" />
        <rect
           ry="0.094587512"
           y="-63.084587"
           x="-131.07022"
           height="0.18917502"
           width="3.609175"
           id="rect5436"
           style="fill:#000000;fill-opacity:0.5254902;fill-rule:evenodd;stroke:url(#linearGradient3999);stroke-width:0.1;stroke-linecap:square;stroke-linejoin:miter;stroke-miterlimit:4;stroke-opacity:1;stroke-dasharray:none" />
      </g>
    </g>
  </g>
</svg>
