<?xml version="1.0" encoding="UTF-8" standalone="no"?>
<!-- Generator: Adobe Illustrator 12.0.0, SVG Export Plug-In . SVG Version: 6.00 Build 51448)  -->
<svg
   xmlns:ns="http://ns.adobe.com/SaveForWeb/1.0/"
   xmlns:dc="http://purl.org/dc/elements/1.1/"
   xmlns:cc="http://web.resource.org/cc/"
   xmlns:rdf="http://www.w3.org/1999/02/22-rdf-syntax-ns#"
   xmlns:svg="http://www.w3.org/2000/svg"
   xmlns="http://www.w3.org/2000/svg"
   xmlns:xlink="http://www.w3.org/1999/xlink"
   xmlns:sodipodi="http://sodipodi.sourceforge.net/DTD/sodipodi-0.dtd"
   xmlns:inkscape="http://www.inkscape.org/namespaces/inkscape"
   version="1.1"
   id="Layer_1"
   width="128"
   height="128"
   viewBox="0 0 128 128"
   overflow="visible"
   enable-background="new 0 0 128 128"
   xml:space="preserve"
   sodipodi:version="0.32"
   inkscape:version="0.45"
   sodipodi:docname="none.svg"
   sodipodi:docbase="/home/rmarxer/dev/oxygen/scalable/mimetypes/oldpages"
   inkscape:output_extension="org.inkscape.output.svg.inkscape"
   sodipodi:modified="true"><defs
   id="defs105"><linearGradient
     id="linearGradient10207"><stop
       style="stop-color:#a2a2a2;stop-opacity:1;"
       offset="0"
       id="stop10209" /><stop
       style="stop-color:#ffffff;stop-opacity:1;"
       offset="1"
       id="stop10211" /></linearGradient><linearGradient
     inkscape:collect="always"
     xlink:href="#linearGradient10207"
     id="linearGradient10213"
     x1="98.617439"
     y1="106.41443"
     x2="91.228737"
     y2="99.254974"
     gradientUnits="userSpaceOnUse" /><filter
     inkscape:collect="always"
     x="-0.19200002"
     width="1.3839999"
     y="-0.19199999"
     height="1.3839999"
     id="filter6697"><feGaussianBlur
       inkscape:collect="always"
       stdDeviation="1.9447689"
       id="feGaussianBlur6699" /></filter><clipPath
     clipPathUnits="userSpaceOnUse"
     id="clipPath7084"><path
       style="fill:#000000;fill-opacity:1;fill-rule:evenodd;stroke:none;stroke-width:1px;stroke-linecap:butt;stroke-linejoin:miter;stroke-opacity:1"
       d="M 72,88 L 40,120 L 32,120 L 32,80 L 72,80 L 72,88 z"
       id="path7086" /></clipPath><radialGradient
     id="XMLID_8_"
     cx="102"
     cy="112.3047"
     r="139.55859"
     gradientUnits="userSpaceOnUse"><stop
       offset="0"
       style="stop-color:#b7b8b9;stop-opacity:1;"
       id="stop41" /><stop
       offset="0.18851049"
       style="stop-color:#ECECEC"
       id="stop47" /><stop
       offset="0.25718147"
       style="stop-color:#FAFAFA"
       id="stop49" /><stop
       offset="0.30111277"
       style="stop-color:#FFFFFF"
       id="stop51" /><stop
       offset="0.5313"
       style="stop-color:#FAFAFA"
       id="stop53" /><stop
       offset="0.8449"
       style="stop-color:#EBECEC"
       id="stop55" /><stop
       offset="1"
       style="stop-color:#E1E2E3"
       id="stop57" /></radialGradient><radialGradient
     inkscape:collect="always"
     xlink:href="#XMLID_8_"
     id="radialGradient9437"
     gradientUnits="userSpaceOnUse"
     gradientTransform="matrix(1,0,0,0.9996653,2e-6,3.0160848e-3)"
     cx="102"
     cy="112.3047"
     r="139.55859" /><filter
     inkscape:collect="always"
     id="filter2770"><feGaussianBlur
       inkscape:collect="always"
       stdDeviation="2.0786429"
       id="feGaussianBlur2772" /></filter><linearGradient
     y2="0"
     x2="28"
     y1="57.5"
     x1="28"
     gradientUnits="userSpaceOnUse"
     id="linearGradient2973">
			<stop
   id="stop2975"
   style="stop-color:#2c72c7;stop-opacity:1;"
   offset="0" />
			<stop
   id="stop2977"
   style="stop-color:#0057ae;stop-opacity:1;"
   offset="1" />
		</linearGradient><linearGradient
     inkscape:collect="always"
     xlink:href="#XMLID_9_"
     id="linearGradient12370"
     gradientUnits="userSpaceOnUse"
     x1="94.3438"
     y1="102.3447"
     x2="86.5356"
     y2="94.5366" /><linearGradient
     inkscape:collect="always"
     xlink:href="#XMLID_10_"
     id="linearGradient12372"
     gradientUnits="userSpaceOnUse"
     x1="95"
     y1="103"
     x2="86.5865"
     y2="94.5865" /><linearGradient
     inkscape:collect="always"
     xlink:href="#XMLID_11_"
     id="linearGradient12374"
     gradientUnits="userSpaceOnUse"
     x1="95"
     y1="103"
     x2="87.293"
     y2="95.293" /><linearGradient
     inkscape:collect="always"
     xlink:href="#XMLID_12_"
     id="linearGradient12376"
     gradientUnits="userSpaceOnUse"
     x1="96"
     y1="104"
     x2="88.0002"
     y2="96.0002" /><radialGradient
     inkscape:collect="always"
     xlink:href="#XMLID_8_"
     id="radialGradient2013"
     gradientUnits="userSpaceOnUse"
     cx="102"
     cy="112.3047"
     r="139.55859" /><radialGradient
     inkscape:collect="always"
     xlink:href="#XMLID_7_"
     id="radialGradient2016"
     gradientUnits="userSpaceOnUse"
     cx="102"
     cy="112.3047"
     r="139.5585" /><linearGradient
     inkscape:collect="always"
     xlink:href="#linearGradient2973"
     id="linearGradient2086"
     x1="99.870148"
     y1="108.29724"
     x2="45.794388"
     y2="28.399151"
     gradientUnits="userSpaceOnUse" /></defs><sodipodi:namedview
   inkscape:window-height="694"
   inkscape:window-width="1018"
   inkscape:pageshadow="2"
   inkscape:pageopacity="0.0"
   guidetolerance="10.0"
   gridtolerance="10.0"
   objecttolerance="10.0"
   borderopacity="1.0"
   bordercolor="#666666"
   pagecolor="#ffffff"
   id="base"
   inkscape:zoom="3.90625"
   inkscape:cx="64"
   inkscape:cy="64"
   inkscape:window-x="0"
   inkscape:window-y="0"
   inkscape:current-layer="Layer_1"
   showgrid="true"
   gridspacingx="4px"
   gridspacingy="4px" />
<metadata
   id="metadata3">
	<ns:sfw>
		<ns:slices>
			<ns:slice
   y="0"
   x="0"
   height="128"
   width="128"
   sliceID="1316743234" />
		</ns:slices>
		<ns:sliceSourceBounds
   y="0"
   x="0"
   height="128"
   width="128"
   bottomLeftOrigin="true" />
		<ns:optimizationSettings>
			<ns:targetSettings
   targetSettingsID="0"
   fileFormat="PNG24Format">
				<ns:PNG24Format
   transparency="true"
   filtered="false"
   matteColor="#FFFFFF"
   noMatteColor="false"
   interlaced="false">
					</ns:PNG24Format>
			</ns:targetSettings>
			<ns:targetSettings
   targetSettingsID="1696735251"
   fileFormat="PNG24Format">
				<ns:PNG24Format
   transparency="true"
   filtered="false"
   matteColor="#FFFFFF"
   noMatteColor="false"
   interlaced="false">
					</ns:PNG24Format>
			</ns:targetSettings>
		</ns:optimizationSettings>
	</ns:sfw>
<rdf:RDF><cc:Work
     rdf:about=""><dc:format>image/svg+xml</dc:format><dc:type
       rdf:resource="http://purl.org/dc/dcmitype/StillImage" /></cc:Work></rdf:RDF></metadata>

<radialGradient
   id="XMLID_7_"
   cx="102"
   cy="112.3047"
   r="139.5585"
   gradientUnits="userSpaceOnUse">
	<stop
   offset="0"
   style="stop-color:#00537D"
   id="stop16" />
	<stop
   offset="0.0151"
   style="stop-color:#186389"
   id="stop18" />
	<stop
   offset="0.0558"
   style="stop-color:#558CA8"
   id="stop20" />
	<stop
   offset="0.0964"
   style="stop-color:#89AFC3"
   id="stop22" />
	<stop
   offset="0.1357"
   style="stop-color:#B3CCD8"
   id="stop24" />
	<stop
   offset="0.1737"
   style="stop-color:#D4E2E9"
   id="stop26" />
	<stop
   offset="0.2099"
   style="stop-color:#ECF2F5"
   id="stop28" />
	<stop
   offset="0.2435"
   style="stop-color:#FAFCFD"
   id="stop30" />
	<stop
   offset="0.2722"
   style="stop-color:#FFFFFF"
   id="stop32" />
</radialGradient>



<linearGradient
   id="XMLID_9_"
   gradientUnits="userSpaceOnUse"
   x1="94.3438"
   y1="102.3447"
   x2="86.5356"
   y2="94.5366">
	<stop
   offset="0"
   style="stop-color:#FFFFFF"
   id="stop62" />
	<stop
   offset="1"
   style="stop-color:#555753"
   id="stop64" />
</linearGradient>

<linearGradient
   id="XMLID_10_"
   gradientUnits="userSpaceOnUse"
   x1="95"
   y1="103"
   x2="86.5865"
   y2="94.5865">
	<stop
   offset="0"
   style="stop-color:#FFFFFF"
   id="stop69" />
	<stop
   offset="1"
   style="stop-color:#555753"
   id="stop71" />
</linearGradient>

<linearGradient
   id="XMLID_11_"
   gradientUnits="userSpaceOnUse"
   x1="95"
   y1="103"
   x2="87.293"
   y2="95.293">
	<stop
   offset="0"
   style="stop-color:#FFFFFF"
   id="stop76" />
	<stop
   offset="1"
   style="stop-color:#393B38"
   id="stop78" />
</linearGradient>

<linearGradient
   id="XMLID_12_"
   gradientUnits="userSpaceOnUse"
   x1="96"
   y1="104"
   x2="88.0002"
   y2="96.0002">
	<stop
   offset="0"
   style="stop-color:#888A85"
   id="stop83" />
	<stop
   offset="0.0072"
   style="stop-color:#8C8E89"
   id="stop85" />
	<stop
   offset="0.0673"
   style="stop-color:#ABACA9"
   id="stop87" />
	<stop
   offset="0.1347"
   style="stop-color:#C5C6C4"
   id="stop89" />
	<stop
   offset="0.2115"
   style="stop-color:#DBDBDA"
   id="stop91" />
	<stop
   offset="0.3012"
   style="stop-color:#EBEBEB"
   id="stop93" />
	<stop
   offset="0.4122"
   style="stop-color:#F7F7F6"
   id="stop95" />
	<stop
   offset="0.5679"
   style="stop-color:#FDFDFD"
   id="stop97" />
	<stop
   offset="1"
   style="stop-color:#FFFFFF"
   id="stop99" />
</linearGradient>


<g
   id="g5833"
   transform="translate(-2.1e-6,-0.4999957)"><path
     transform="matrix(1.0416667,0,0,1.0267857,-2.6666667,-1.2142891)"
     sodipodi:nodetypes="csccscccc"
     id="path7865"
     d="M 16,8 L 16,120 C 16,120 79.15625,120 79.15625,120 L 79.1875,120 C 79.187503,120 91.09375,110.09375 96.59375,104.59375 C 102.09375,99.09375 112,87.1875 112,87.1875 L 112,87.15625 L 112,8 L 16,8 z "
     style="opacity:0.5;fill:#000000;fill-opacity:1;filter:url(#filter2770)" /><path
     sodipodi:nodetypes="cccccc"
     id="path34"
     d="M 16.000001,8 L 16,120 C 16,120 79.146418,120 79.146418,120 L 112,87.14642 L 112,8 L 16.000001,8 z "
     style="fill:#ffffff;fill-opacity:1" /><path
     sodipodi:nodetypes="ccccccccccc"
     id="path59"
     d="M 18.000002,9.0000034 C 17.449002,9.0000034 17.000002,9.4488534 17.000002,9.9996684 L 17.000002,117.96352 C 17.000002,118.51533 17.449002,118.96318 18.000002,118.96318 L 77.171999,118.96318 C 77.434999,118.96318 79.934679,119.08131 80.12068,118.89438 L 110.707,88.094202 C 110.894,87.907264 111,85.40942 111,85.146508 L 111,9.9996684 C 111,9.4488534 110.552,9.0000034 110,9.0000034 L 18.000002,9.0000034 z "
     style="fill:url(#radialGradient9437);fill-opacity:1" /><path
     transform="translate(40,0)"
     clip-path="url(#clipPath7084)"
     sodipodi:nodetypes="cccc"
     style="opacity:0.4;fill:#000000;fill-opacity:1;filter:url(#filter6697)"
     id="path5540"
     d="M 41.879531,115.98249 C 41.879531,115.98249 66.18914,91.672876 66.18914,91.672876 C 66.18914,91.672876 56.836,94.586 46.586,94.586 C 46.586,104.836 41.879531,115.98249 41.879531,115.98249 z " /><path
     sodipodi:nodetypes="csccc"
     d="M 79.172,120 C 79.172,120 91.086,110.086 96.586,104.586 C 102.086,99.086 112,87.172 112,87.172 C 112,87.172 98.25,96 88,96 C 88,106.25 79.172,120 79.172,120 z "
     id="path14523"
     style="fill:url(#linearGradient10213);fill-opacity:1" /></g><path
   id="text2076"
   d="M 62.842105,28 C 69.438566,28.00007 74.631544,30.070244 78.421053,34.210526 C 80.947326,37.017606 82.210485,40.386024 82.210528,44.315789 C 82.210485,49.157946 79.894696,54.596537 75.263159,60.631581 C 74.421018,61.684251 73.052597,63.368459 71.157895,65.684214 C 67.789444,69.89477 65.57892,74.807045 64.526316,80.421056 C 64.456114,80.912302 64.38594,81.40353 64.315789,81.89474 L 62.526315,81.89474 C 62.666642,76.491254 63.719273,71.508803 65.68421,66.947371 L 68.631579,60.210528 C 71.228037,54.245661 72.526282,48.771981 72.526316,43.789473 C 72.526282,39.228131 70.806986,35.684274 67.36842,33.157894 C 65.543832,31.824628 63.473658,31.157962 61.157895,31.157894 C 57.508752,31.157962 54.631562,32.280768 52.526315,34.526317 C 51.614021,35.579011 51.15788,36.631642 51.157894,37.684211 C 51.15788,38.315851 51.894722,39.543919 53.36842,41.368421 C 54.561386,42.982513 55.157877,44.350934 55.157894,45.473685 C 55.157877,47.649175 54.175422,49.017596 52.210526,49.578948 C 51.789459,49.719349 51.33332,49.789525 50.842103,49.789475 C 47.473673,49.789525 45.789465,47.614088 45.789472,43.26316 C 45.789465,37.929885 48.070165,33.789539 52.631576,30.842104 C 55.578928,28.947438 58.982435,28.00007 62.842105,28 M 63.578947,88.736839 C 65.894709,88.736854 67.578918,89.82458 68.631579,92.00001 C 69.052602,92.77194 69.263127,93.61404 69.263159,94.52631 C 69.263127,97.05264 68.070146,98.73684 65.68421,99.57894 C 64.98243,99.85965 64.245588,100 63.473684,100 C 60.87717,100 59.157873,98.8772 58.315788,96.63158 C 58.105243,96.00001 57.99998,95.33335 57.999998,94.63158 C 57.99998,91.96492 59.122785,90.14037 61.36842,89.157906 C 62.070151,88.877214 62.806993,88.736854 63.578947,88.736839"
   style="font-size:74.98017883px;font-style:normal;font-weight:normal;fill:url(#linearGradient2086);fill-opacity:1.0;stroke:none;stroke-width:1px;stroke-linecap:butt;stroke-linejoin:miter;stroke-opacity:1;font-family:Bitstream Vera Sans" /></svg>