<?xml version="1.0" encoding="UTF-8" standalone="no"?>
<!-- Created with Inkscape (http://www.inkscape.org/) -->
<svg
   xmlns:dc="http://purl.org/dc/elements/1.1/"
   xmlns:cc="http://web.resource.org/cc/"
   xmlns:rdf="http://www.w3.org/1999/02/22-rdf-syntax-ns#"
   xmlns:svg="http://www.w3.org/2000/svg"
   xmlns="http://www.w3.org/2000/svg"
   xmlns:xlink="http://www.w3.org/1999/xlink"
   xmlns:sodipodi="http://sodipodi.sourceforge.net/DTD/sodipodi-0.dtd"
   xmlns:inkscape="http://www.inkscape.org/namespaces/inkscape"
   width="128"
   height="128"
   id="svg2"
   sodipodi:version="0.32"
   inkscape:version="0.45"
   version="1.0"
   sodipodi:docbase="/home/david/Progetti/oxygen-svn/Oxygen/theme/svg/actions"
   sodipodi:docname="bookmark_toolbar.svg"
   inkscape:output_extension="org.inkscape.output.svg.inkscape"
   sodipodi:modified="true">
  <defs
     id="defs4">
    <radialGradient
       inkscape:collect="always"
       xlink:href="#linearGradient3291"
       id="radialGradient3336"
       gradientUnits="userSpaceOnUse"
       gradientTransform="matrix(1,0,0,0.197802,0,92.82166)"
       cx="63.912209"
       cy="115.70919"
       fx="63.912209"
       fy="115.7093"
       r="63.912209" />
    <radialGradient
       inkscape:collect="always"
       xlink:href="#linearGradient3765"
       id="radialGradient3521"
       gradientUnits="userSpaceOnUse"
       gradientTransform="matrix(1.484142,0.129521,-0.489782,5.61225,35.51325,-445.3727)"
       cx="23.662739"
       cy="95.898506"
       fx="24.26058"
       fy="96.778763"
       r="2.793914" />
    <radialGradient
       inkscape:collect="always"
       xlink:href="#linearGradient3747"
       id="radialGradient3519"
       gradientUnits="userSpaceOnUse"
       gradientTransform="matrix(1,0,0,9.492274e-2,0,-41.10492)"
       cx="5.7531347"
       cy="-45.41592"
       fx="74.816956"
       fy="-43.169445"
       r="124.10334" />
    <radialGradient
       inkscape:collect="always"
       xlink:href="#linearGradient3747"
       id="radialGradient3517"
       gradientUnits="userSpaceOnUse"
       gradientTransform="matrix(1,0,0,9.492274e-2,0,-41.10492)"
       cx="5.7531347"
       cy="-45.41592"
       fx="74.816956"
       fy="-43.169445"
       r="124.10334" />
    <radialGradient
       inkscape:collect="always"
       xlink:href="#linearGradient3747"
       id="radialGradient3515"
       gradientUnits="userSpaceOnUse"
       gradientTransform="matrix(1,0,0,9.492274e-2,0,-41.10492)"
       cx="5.7531347"
       cy="-45.41592"
       fx="74.816956"
       fy="-43.169445"
       r="124.10334" />
    <linearGradient
       inkscape:collect="always"
       xlink:href="#linearGradient1563"
       id="linearGradient3513"
       gradientUnits="userSpaceOnUse"
       x1="98.291809"
       y1="-44.01474"
       x2="44.242641"
       y2="101.45739" />
    <linearGradient
       inkscape:collect="always"
       xlink:href="#linearGradient1563"
       id="linearGradient3511"
       gradientUnits="userSpaceOnUse"
       x1="98.291809"
       y1="-44.01474"
       x2="44.242641"
       y2="101.45739" />
    <linearGradient
       inkscape:collect="always"
       xlink:href="#linearGradient1563"
       id="linearGradient3509"
       gradientUnits="userSpaceOnUse"
       x1="98.291809"
       y1="-126.7503"
       x2="44.242641"
       y2="101.45739" />
    <radialGradient
       inkscape:collect="always"
       xlink:href="#linearGradient12948"
       id="radialGradient3507"
       gradientUnits="userSpaceOnUse"
       gradientTransform="matrix(1,0,0,0.941176,0,3.492906)"
       cx="23.190451"
       cy="59.379417"
       fx="22.471308"
       fy="59.354759"
       r="2.1082227" />
    <linearGradient
       inkscape:collect="always"
       xlink:href="#linearGradient3638"
       id="linearGradient3505"
       gradientUnits="userSpaceOnUse"
       x1="57.287113"
       y1="1.1597457"
       x2="144.2531"
       y2="16.876789" />
    <linearGradient
       inkscape:collect="always"
       xlink:href="#linearGradient3638"
       id="linearGradient3503"
       gradientUnits="userSpaceOnUse"
       x1="57.287113"
       y1="1.1597457"
       x2="144.2531"
       y2="16.876789" />
    <linearGradient
       inkscape:collect="always"
       xlink:href="#linearGradient3638"
       id="linearGradient3501"
       gradientUnits="userSpaceOnUse"
       x1="57.287113"
       y1="1.1597457"
       x2="144.2531"
       y2="16.876789" />
    <radialGradient
       inkscape:collect="always"
       xlink:href="#linearGradient3291"
       id="radialGradient3499"
       gradientUnits="userSpaceOnUse"
       gradientTransform="matrix(1,0,0,0.197802,0,92.82166)"
       cx="63.912209"
       cy="115.70919"
       fx="63.975182"
       fy="116.88514"
       r="63.912209" />
    <linearGradient
       inkscape:collect="always"
       xlink:href="#linearGradient3273"
       id="linearGradient3497"
       gradientUnits="userSpaceOnUse"
       gradientTransform="matrix(0.959962,0,0,0.959962,2.35549,3.275418)"
       spreadMethod="reflect"
       x1="80.100487"
       y1="44.807674"
       x2="77.714729"
       y2="101.4734" />
    <linearGradient
       inkscape:collect="always"
       xlink:href="#linearGradient3290"
       id="linearGradient3495"
       gradientUnits="userSpaceOnUse"
       x1="84.634949"
       y1="116.10083"
       x2="89.72541"
       y2="-15.33666" />
    <linearGradient
       id="linearGradient3235">
      <stop
         style="stop-color:#e3e3e6;stop-opacity:1;"
         offset="0"
         id="stop3237" />
      <stop
         style="stop-color:#ffffff;stop-opacity:1;"
         offset="1"
         id="stop3239" />
    </linearGradient>
    <linearGradient
       id="linearGradient3236">
      <stop
         style="stop-color:#727272;stop-opacity:1;"
         offset="0"
         id="stop3238" />
      <stop
         style="stop-color:#f8f8f8;stop-opacity:1;"
         offset="1"
         id="stop3240" />
    </linearGradient>
    <linearGradient
       id="linearGradient3290">
      <stop
         style="stop-color:yellow;stop-opacity:1;"
         offset="0"
         id="stop3292" />
      <stop
         style="stop-color:#ffb66d;stop-opacity:1;"
         offset="1"
         id="stop3294" />
    </linearGradient>
    <linearGradient
       inkscape:collect="always"
       id="linearGradient3765">
      <stop
         style="stop-color:#ffffff;stop-opacity:1;"
         offset="0"
         id="stop3767" />
      <stop
         style="stop-color:#ffffff;stop-opacity:0;"
         offset="1"
         id="stop3769" />
    </linearGradient>
    <linearGradient
       inkscape:collect="always"
       id="linearGradient3747">
      <stop
         style="stop-color:#ffffff;stop-opacity:1;"
         offset="0"
         id="stop3749" />
      <stop
         style="stop-color:#ffffff;stop-opacity:0;"
         offset="1"
         id="stop3751" />
    </linearGradient>
    <linearGradient
       id="linearGradient3638">
      <stop
         style="stop-color:#ffffff;stop-opacity:0;"
         offset="0"
         id="stop3640" />
      <stop
         id="stop3661"
         offset="0.06868132"
         style="stop-color:#ffffff;stop-opacity:1;" />
      <stop
         id="stop3659"
         offset="0.5"
         style="stop-color:#ffffff;stop-opacity:1;" />
      <stop
         style="stop-color:#ffffff;stop-opacity:0;"
         offset="1"
         id="stop3642" />
    </linearGradient>
    <linearGradient
       id="linearGradient1563">
      <stop
         id="stop1565"
         offset="0"
         style="stop-color:#ffffff;stop-opacity:1;" />
      <stop
         id="stop1567"
         offset="1"
         style="stop-color:white;stop-opacity:0;" />
    </linearGradient>
    <linearGradient
       id="linearGradient3273">
      <stop
         id="stop3275"
         offset="0"
         style="stop-color:#ffffff;stop-opacity:0.55035973;" />
      <stop
         id="stop3277"
         offset="1"
         style="stop-color:#ffffff;stop-opacity:0;" />
    </linearGradient>
    <linearGradient
       id="linearGradient3291"
       inkscape:collect="always">
      <stop
         id="stop3293"
         offset="0"
         style="stop-color:#000000;stop-opacity:1;" />
      <stop
         id="stop3295"
         offset="1"
         style="stop-color:#000000;stop-opacity:0;" />
    </linearGradient>
    <linearGradient
       id="linearGradient12948">
      <stop
         style="stop-color:#ffffff;stop-opacity:1;"
         offset="0"
         id="stop12950" />
      <stop
         style="stop-color:#c0c0c0;stop-opacity:0;"
         offset="1"
         id="stop12952" />
    </linearGradient>
    <radialGradient
       inkscape:collect="always"
       xlink:href="#linearGradient3236"
       id="radialGradient3165"
       cx="152.08052"
       cy="40.428711"
       fx="153.39473"
       fy="41.424862"
       r="4.3543735"
       gradientUnits="userSpaceOnUse"
       gradientTransform="matrix(1.17806,-4.586233e-6,4.447791e-6,1.142499,-27.0796,-5.760327)" />
    <radialGradient
       inkscape:collect="always"
       xlink:href="#linearGradient3236"
       id="radialGradient3179"
       gradientUnits="userSpaceOnUse"
       gradientTransform="matrix(1.17806,-4.586233e-6,4.447791e-6,1.142499,-27.0796,-5.760327)"
       cx="152.08052"
       cy="40.428711"
       fx="153.39473"
       fy="41.424862"
       r="4.3543735" />
    <radialGradient
       inkscape:collect="always"
       xlink:href="#linearGradient3236"
       id="radialGradient3181"
       gradientUnits="userSpaceOnUse"
       gradientTransform="matrix(1.17806,-4.586233e-6,4.447791e-6,1.142499,-27.0796,-5.760327)"
       cx="152.08052"
       cy="40.428711"
       fx="153.39473"
       fy="41.424862"
       r="4.3543735" />
    <linearGradient
       inkscape:collect="always"
       xlink:href="#linearGradient3290"
       id="linearGradient3208"
       gradientUnits="userSpaceOnUse"
       gradientTransform="matrix(0.627872,0,0,0.627872,201.602,20.28579)"
       x1="84.634949"
       y1="116.10083"
       x2="89.72541"
       y2="-15.33666" />
    <linearGradient
       inkscape:collect="always"
       xlink:href="#linearGradient3273"
       id="linearGradient3210"
       gradientUnits="userSpaceOnUse"
       gradientTransform="matrix(0.602733,0,0,0.602733,203.0809,22.34233)"
       spreadMethod="reflect"
       x1="80.100487"
       y1="44.807674"
       x2="77.714729"
       y2="101.4734" />
    <linearGradient
       inkscape:collect="always"
       xlink:href="#linearGradient3638"
       id="linearGradient3212"
       gradientUnits="userSpaceOnUse"
       gradientTransform="matrix(0.627872,0,0,0.627872,201.602,20.28579)"
       x1="57.287113"
       y1="1.1597457"
       x2="144.2531"
       y2="16.876789" />
    <linearGradient
       inkscape:collect="always"
       xlink:href="#linearGradient3638"
       id="linearGradient3214"
       gradientUnits="userSpaceOnUse"
       gradientTransform="matrix(0.627872,0,0,0.627872,201.602,20.28579)"
       x1="57.287113"
       y1="1.1597457"
       x2="144.2531"
       y2="16.876789" />
    <linearGradient
       inkscape:collect="always"
       xlink:href="#linearGradient3638"
       id="linearGradient3216"
       gradientUnits="userSpaceOnUse"
       gradientTransform="matrix(0.627872,0,0,0.627872,201.602,20.28579)"
       x1="57.287113"
       y1="1.1597457"
       x2="144.2531"
       y2="16.876789" />
    <radialGradient
       inkscape:collect="always"
       xlink:href="#linearGradient12948"
       id="radialGradient3218"
       gradientUnits="userSpaceOnUse"
       gradientTransform="matrix(1,0,0,0.941176,0,3.492906)"
       cx="23.190451"
       cy="59.379417"
       fx="22.471308"
       fy="59.354759"
       r="2.1082227" />
    <linearGradient
       inkscape:collect="always"
       xlink:href="#linearGradient1563"
       id="linearGradient3220"
       gradientUnits="userSpaceOnUse"
       gradientTransform="matrix(0.627872,0,0,0.627872,201.602,20.28579)"
       x1="98.291809"
       y1="-126.7503"
       x2="44.242641"
       y2="101.45739" />
    <linearGradient
       inkscape:collect="always"
       xlink:href="#linearGradient1563"
       id="linearGradient3222"
       gradientUnits="userSpaceOnUse"
       gradientTransform="matrix(0.627872,0,0,0.627872,201.602,20.28579)"
       x1="98.291809"
       y1="-44.01474"
       x2="44.242641"
       y2="101.45739" />
    <linearGradient
       inkscape:collect="always"
       xlink:href="#linearGradient1563"
       id="linearGradient3224"
       gradientUnits="userSpaceOnUse"
       gradientTransform="matrix(0.627872,0,0,0.627872,201.602,20.28579)"
       x1="98.291809"
       y1="-44.01474"
       x2="44.242641"
       y2="101.45739" />
    <radialGradient
       inkscape:collect="always"
       xlink:href="#linearGradient3747"
       id="radialGradient3226"
       gradientUnits="userSpaceOnUse"
       gradientTransform="matrix(1,0,0,9.492274e-2,0,-41.10492)"
       cx="5.7531347"
       cy="-45.41592"
       fx="74.816956"
       fy="-43.169445"
       r="124.10334" />
    <radialGradient
       inkscape:collect="always"
       xlink:href="#linearGradient3747"
       id="radialGradient3228"
       gradientUnits="userSpaceOnUse"
       gradientTransform="matrix(1,0,0,9.492274e-2,0,-41.10492)"
       cx="5.7531347"
       cy="-45.41592"
       fx="74.816956"
       fy="-43.169445"
       r="124.10334" />
    <radialGradient
       inkscape:collect="always"
       xlink:href="#linearGradient3747"
       id="radialGradient3230"
       gradientUnits="userSpaceOnUse"
       gradientTransform="matrix(1,0,0,9.492274e-2,0,-41.10492)"
       cx="5.7531347"
       cy="-45.41592"
       fx="74.816956"
       fy="-43.169445"
       r="124.10334" />
    <radialGradient
       inkscape:collect="always"
       xlink:href="#linearGradient3765"
       id="radialGradient3232"
       gradientUnits="userSpaceOnUse"
       gradientTransform="matrix(0.931851,8.132258e-2,-0.30752,3.523773,223.8997,-259.3512)"
       cx="23.662739"
       cy="95.898506"
       fx="24.26058"
       fy="96.778763"
       r="2.793914" />
    <linearGradient
       inkscape:collect="always"
       xlink:href="#linearGradient3235"
       id="linearGradient4214"
       x1="144"
       y1="32"
       x2="145.24672"
       y2="88.013878"
       gradientUnits="userSpaceOnUse"
       gradientTransform="translate(-80,0)" />
  </defs>
  <sodipodi:namedview
     id="base"
     pagecolor="#ffffff"
     bordercolor="#666666"
     borderopacity="1.0"
     inkscape:pageopacity="0.0"
     inkscape:pageshadow="2"
     inkscape:zoom="1"
     inkscape:cx="102.93971"
     inkscape:cy="76.553686"
     inkscape:document-units="px"
     inkscape:current-layer="layer1"
     inkscape:window-width="1018"
     inkscape:window-height="694"
     inkscape:window-x="0"
     inkscape:window-y="0"
     showgrid="true"
     gridspacingx="8px"
     gridspacingy="8px"
     gridempspacing="0"
     showguides="true"
     inkscape:guide-bbox="true" />
  <metadata
     id="metadata7">
    <rdf:RDF>
      <cc:Work
         rdf:about="">
        <dc:format>image/svg+xml</dc:format>
        <dc:type
           rdf:resource="http://purl.org/dc/dcmitype/StillImage" />
      </cc:Work>
    </rdf:RDF>
  </metadata>
  <g
     inkscape:label="Layer 1"
     inkscape:groupmode="layer"
     id="layer1">
    <path
       sodipodi:type="arc"
       style="opacity:0.38139535;fill:url(#radialGradient3336);fill-opacity:1;fill-rule:nonzero;stroke:none;stroke-width:0;stroke-linecap:round;stroke-linejoin:round;stroke-miterlimit:4;stroke-dasharray:none;stroke-dashoffset:4;stroke-opacity:1"
       id="path1563"
       sodipodi:cx="63.912209"
       sodipodi:cy="115.70919"
       sodipodi:rx="63.912209"
       sodipodi:ry="12.641975"
       d="M 127.82442 115.70919 A 63.912209 12.641975 0 1 1  0,115.70919 A 63.912209 12.641975 0 1 1  127.82442 115.70919 z"
       transform="matrix(1.001374,0,0,0.410379,-2.3931686e-5,75.327377)" />
    <rect
       ry="8.2106857"
       rx="8.2106857"
       y="32"
       x="8"
       height="56"
       width="112"
       id="rect4216"
       style="opacity:1;fill:#888888;fill-opacity:1;fill-rule:nonzero;stroke:#bbbbbb;stroke-width:8;stroke-linecap:round;stroke-linejoin:round;stroke-miterlimit:4;stroke-dasharray:none;stroke-opacity:1" />
    <rect
       style="opacity:1;fill:url(#linearGradient4214);fill-opacity:1;fill-rule:nonzero;stroke:none;stroke-width:8;stroke-linecap:round;stroke-linejoin:round;stroke-miterlimit:4;stroke-dasharray:none;stroke-opacity:1"
       id="rect4212"
       width="112"
       height="56"
       x="8"
       y="32"
       rx="8.2106857"
       ry="8.2106857" />
    <path
       sodipodi:nodetypes="ccc"
       id="path2276"
       d="M -106.3852,44.124126 L -106.3852,41.329417 L -106.3852,44.124126 z "
       style="fill:#ffffff;fill-opacity:0.75688076;fill-rule:nonzero;stroke:none;stroke-width:0.5;stroke-linecap:round;stroke-linejoin:round;stroke-miterlimit:4;stroke-dasharray:none;stroke-dashoffset:4;stroke-opacity:1" />
    <path
       sodipodi:nodetypes="ccc"
       id="path2191"
       d="M 188.2242,-18.066764 L 188.2242,-20.861473 L 188.2242,-18.066764 z "
       style="fill:white;fill-opacity:0.75688076;fill-rule:nonzero;stroke:none;stroke-width:0.5;stroke-linecap:round;stroke-linejoin:round;stroke-miterlimit:4;stroke-dasharray:none;stroke-dashoffset:4;stroke-opacity:1" />
    <path
       sodipodi:nodetypes="ccc"
       id="path2985"
       d="M 31.2159,-87.701864 L 31.2159,-90.496573 L 31.2159,-87.701864 z "
       style="fill:white;fill-opacity:0.75688076;fill-rule:nonzero;stroke:none;stroke-width:0.5;stroke-linecap:round;stroke-linejoin:round;stroke-miterlimit:4;stroke-dasharray:none;stroke-dashoffset:4;stroke-opacity:1" />
    <path
       sodipodi:nodetypes="ccc"
       id="path3206"
       d="M -88.2863,-174.33211 L -88.2863,-177.12682 L -88.2863,-174.33211 z "
       style="fill:white;fill-opacity:0.75688076;fill-rule:nonzero;stroke:none;stroke-width:0.5;stroke-linecap:round;stroke-linejoin:round;stroke-miterlimit:4;stroke-dasharray:none;stroke-dashoffset:4;stroke-opacity:1" />
    <g
       id="layer4"
       inkscape:label="box"
       style="display:inline"
       transform="translate(94.6653,-29.75048)" />
    <g
       id="layer5"
       inkscape:label="zip_app"
       style="display:inline"
       transform="translate(94.6653,-29.75048)" />
    <path
       sodipodi:nodetypes="ccc"
       id="path3946"
       d="M 158.3051,-108.57684 L 158.3051,-111.37155 L 158.3051,-108.57684 z "
       style="fill:white;fill-opacity:0.75688076;fill-rule:nonzero;stroke:none;stroke-width:0.5;stroke-linecap:round;stroke-linejoin:round;stroke-miterlimit:4;stroke-dasharray:none;stroke-dashoffset:4;stroke-opacity:1" />
    <path
       sodipodi:nodetypes="ccc"
       id="path1561"
       d="M 65.680654,-34.683164 L 65.680654,-36.2099 L 65.680654,-34.683164 z "
       style="fill:white;fill-opacity:0.75688076;fill-rule:nonzero;stroke:none;stroke-width:0.5;stroke-linecap:round;stroke-linejoin:round;stroke-miterlimit:4;stroke-dasharray:none;stroke-dashoffset:4;stroke-opacity:1" />
    <rect
       style="opacity:0.57786889;fill:white;fill-opacity:1;fill-rule:nonzero;stroke:none;stroke-width:3.63199997;stroke-linecap:round;stroke-linejoin:round;stroke-miterlimit:4;stroke-dasharray:none;stroke-dashoffset:4;stroke-opacity:1"
       id="rect1327"
       width="1"
       height="0"
       x="8.1959171"
       y="-91.28315" />
    <rect
       style="opacity:0.57786889;fill:white;fill-opacity:1;fill-rule:nonzero;stroke:none;stroke-width:3.63199997;stroke-linecap:round;stroke-linejoin:round;stroke-miterlimit:4;stroke-dasharray:none;stroke-dashoffset:4;stroke-opacity:1"
       id="rect2482"
       width="1"
       height="0"
       x="-26.930899"
       y="-118.81076" />
    <path
       sodipodi:nodetypes="ccc"
       id="path2494"
       d="M -185.86832,-192.02683 L -185.86832,-194.82154 L -185.86832,-192.02683 z "
       style="fill:white;fill-opacity:0.75688076;fill-rule:nonzero;stroke:none;stroke-width:0.5;stroke-linecap:round;stroke-linejoin:round;stroke-miterlimit:4;stroke-dasharray:none;stroke-dashoffset:4;stroke-opacity:1" />
    <g
       style="opacity:0.40163933"
       transform="matrix(-0.782995,0,0,0.650879,-2508.727,494.4908)"
       id="g4640" />
    <g
       id="g4646"
       transform="matrix(-0.782995,0,0,0.650879,-2508.727,494.4908)"
       style="opacity:0.40163933" />
    <g
       id="g4730"
       transform="matrix(1,0,0,0.650879,692.2361,501.8186)"
       style="opacity:0.40163933" />
    <g
       style="opacity:0.40163933"
       transform="matrix(1,0,0,0.650879,692.2361,501.8186)"
       id="g4748" />
    <path
       sodipodi:type="arc"
       style="opacity:1;fill:url(#radialGradient3165);fill-opacity:1;fill-rule:nonzero;stroke:none;stroke-width:1;stroke-linecap:round;stroke-linejoin:round;stroke-miterlimit:4;stroke-dasharray:none;stroke-dashoffset:4;stroke-opacity:0.71951222"
       id="path2258"
       sodipodi:cx="152.08052"
       sodipodi:cy="40.428711"
       sodipodi:rx="4.3543735"
       sodipodi:ry="4.3543735"
       d="M 156.43489 40.428711 A 4.3543735 4.3543735 0 1 1  147.72615,40.428711 A 4.3543735 4.3543735 0 1 1  156.43489 40.428711 z"
       transform="matrix(0.9186167,0,0,0.9186167,-119.70371,6.8615108)" />
    <path
       sodipodi:type="arc"
       style="opacity:1;fill:url(#radialGradient3181);fill-opacity:1;fill-rule:nonzero;stroke:none;stroke-width:1;stroke-linecap:round;stroke-linejoin:round;stroke-miterlimit:4;stroke-dasharray:none;stroke-dashoffset:4;stroke-opacity:0.71951222"
       id="path3175"
       sodipodi:cx="152.08052"
       sodipodi:cy="40.428711"
       sodipodi:rx="4.3543735"
       sodipodi:ry="4.3543735"
       d="M 156.43489 40.428711 A 4.3543735 4.3543735 0 1 1  147.72615,40.428711 A 4.3543735 4.3543735 0 1 1  156.43489 40.428711 z"
       transform="matrix(0.9186167,0,0,0.9186167,-119.70371,22.861511)" />
    <path
       transform="matrix(0.9186167,0,0,0.9186167,-119.70371,38.861511)"
       d="M 156.43489 40.428711 A 4.3543735 4.3543735 0 1 1  147.72615,40.428711 A 4.3543735 4.3543735 0 1 1  156.43489 40.428711 z"
       sodipodi:ry="4.3543735"
       sodipodi:rx="4.3543735"
       sodipodi:cy="40.428711"
       sodipodi:cx="152.08052"
       id="path3177"
       style="opacity:1;fill:url(#radialGradient3179);fill-opacity:1;fill-rule:nonzero;stroke:none;stroke-width:1;stroke-linecap:round;stroke-linejoin:round;stroke-miterlimit:4;stroke-dasharray:none;stroke-dashoffset:4;stroke-opacity:0.71951222"
       sodipodi:type="arc" />
    <g
       id="g3447"
       transform="matrix(0.5624998,0,0,0.5624998,56.000026,56.000024)">
      <path
         sodipodi:type="star"
         style="opacity:1;fill:#e3ad00;fill-opacity:1;fill-rule:nonzero;stroke:none;stroke-width:14.80892944;stroke-linecap:round;stroke-linejoin:round;stroke-miterlimit:4;stroke-dasharray:none;stroke-dashoffset:4;stroke-opacity:1"
         id="path3574"
         sodipodi:sides="5"
         sodipodi:cx="52.952892"
         sodipodi:cy="25.510532"
         sodipodi:r1="121.72647"
         sodipodi:r2="76.832565"
         sodipodi:arg1="0.60469864"
         sodipodi:arg2="1.2330172"
         inkscape:flatsided="false"
         inkscape:rounded="0.20136392"
         inkscape:randomized="0"
         d="M 153.09403,94.713757 C 144.53658,107.09689 92.616372,93.013297 78.414631,98.001518 C 64.21289,102.98974 32.50348,146.4474 18.082028,142.13539 C 3.6605746,137.82337 1.0106378,84.092245 -8.1220219,72.127031 C -17.254681,60.161818 -68.384124,43.433534 -68.739625,28.385431 C -69.095125,13.337327 -18.812666,-5.7867426 -10.255219,-18.169872 C -1.697772,-30.553002 -1.5880954,-84.349316 12.613645,-89.337536 C 26.815387,-94.325757 60.541592,-52.41396 74.963045,-48.101941 C 89.384498,-43.789923 140.58172,-60.30959 149.71438,-48.344376 C 158.84704,-36.379162 129.40853,8.6478227 129.76403,23.695927 C 130.11953,38.74403 161.65148,82.330628 153.09403,94.713757 z "
         transform="matrix(0.511285,0.187762,-0.187762,0.511285,41.72321,44.08266)" />
      <path
         sodipodi:nodetypes="cssssssssssssssssscssssssscssssssssssssssssc"
         id="path3580"
         d="M 64.817613,10.159328 C 64.581604,10.317484 63.312654,10.957094 61.843149,12.708869 C 60.101516,14.785047 58.138879,17.917081 56.177505,21.235666 C 54.216128,24.55425 52.251443,28.092247 50.341888,31.150546 C 48.432331,34.208845 46.806952,36.762169 44.279648,38.544213 C 41.752344,40.326257 38.764915,41.002069 35.242943,41.773631 C 31.720971,42.545192 27.75285,43.193621 23.968308,43.926576 C 20.183765,44.659533 16.5656,45.476237 14.025101,46.419462 C 11.841858,47.230044 10.829167,48.201295 10.625712,48.345781 C 10.626839,48.347738 10.624524,48.371367 10.625712,48.374108 C 10.696321,48.571093 10.870285,49.989399 12.127109,52.000123 C 13.563478,54.298089 15.950898,57.154462 18.50096,60.045339 C 21.051023,62.936217 23.774397,65.867627 26.092925,68.628793 C 28.411454,71.389955 30.363146,73.748045 31.27699,76.702337 C 32.190833,79.656627 31.914822,82.68926 31.560274,86.277278 C 31.205724,89.8653 30.616267,93.839413 30.143862,97.665227 C 30.113483,97.911252 30.08362,98.156728 30.054361,98.401429 C 29.628627,101.96194 29.330856,105.3582 29.435657,107.89172 C 29.533657,110.26089 30.173974,111.54076 30.228847,111.74436 C 30.438123,111.73798 31.837454,111.97838 34.138142,111.40442 C 36.7675,110.74847 40.20401,109.39531 43.741411,107.86339 C 47.278812,106.33148 50.937026,104.62602 54.279513,103.27421 C 57.621999,101.9224 60.450754,100.79418 63.542844,100.838 C 66.634933,100.8818 69.418339,102.08321 72.721189,103.52916 C 76.024038,104.97512 79.653393,106.79843 83.145977,108.42996 C 86.638561,110.06147 90.026215,111.49575 92.635935,112.22595 C 94.919441,112.86485 96.334003,112.66799 96.54523,112.67918 C 96.605258,112.47676 97.286649,111.22034 97.451733,108.85487 C 97.640395,106.1515 97.418963,102.46604 97.055137,98.628384 C 96.691312,94.790732 96.174767,90.780408 95.922008,87.183781 C 95.669251,83.587159 95.491404,80.56438 96.488573,77.637169 C 97.485753,74.709955 99.503438,72.399636 101.89927,69.705264 C 104.29508,67.010894 107.11524,64.16591 109.74619,61.348436 C 112.37711,58.530963 114.78913,55.729544 116.29001,53.47319 C 117.57984,51.534136 117.84976,50.137859 117.93304,49.903833 C 117.93436,49.901119 117.93183,49.877435 117.93304,49.875506 C 117.7318,49.725835 116.72138,48.73631 114.56198,47.864201 C 112.04922,46.849382 108.49434,45.927914 104.73209,45.088035 C 100.96983,44.248155 97.012813,43.466178 93.514108,42.595149 C 90.015409,41.724119 87.038194,40.992031 84.562389,39.139105 C 82.086586,37.286179 80.548923,34.65831 78.726774,31.54714 C 76.904626,28.435971 75.041014,24.863438 73.174441,21.49062 C 71.307869,18.117801 69.417536,14.946869 67.735421,12.822182 C 66.263569,10.963081 64.982527,10.293346 64.817613,10.159328 z "
         style="opacity:1;fill:url(#linearGradient3495);fill-opacity:1;fill-rule:nonzero;stroke:url(#linearGradient3497);stroke-width:6.80299997;stroke-linecap:round;stroke-linejoin:round;stroke-miterlimit:4;stroke-dasharray:none;stroke-dashoffset:4;stroke-opacity:1" />
      <path
         style="fill:#ffffff;fill-opacity:0.75688076;fill-rule:nonzero;stroke:none;stroke-width:0.5;stroke-linecap:round;stroke-linejoin:round;stroke-miterlimit:4;stroke-dasharray:none;stroke-dashoffset:4;stroke-opacity:1"
         d="M -106.3852,44.124126 L -106.3852,41.329417 L -106.3852,44.124126 z "
         id="path7180"
         sodipodi:nodetypes="ccc" />
      <path
         transform="matrix(-1.001374,0,0,0.410379,128,75.32738)"
         d="M 127.82442 115.70919 A 63.912209 12.641975 0 1 1  0,115.70919 A 63.912209 12.641975 0 1 1  127.82442 115.70919 z"
         sodipodi:ry="12.641975"
         sodipodi:rx="63.912209"
         sodipodi:cy="115.70919"
         sodipodi:cx="63.912209"
         id="path7182"
         style="opacity:0.38139535;fill:url(#radialGradient3499);fill-opacity:1;fill-rule:nonzero;stroke:none;stroke-width:0;stroke-linecap:round;stroke-linejoin:round;stroke-miterlimit:4;stroke-dasharray:none;stroke-dashoffset:4;stroke-opacity:1"
         sodipodi:type="arc" />
      <path
         sodipodi:nodetypes="csss"
         id="path3632"
         d="M 55.266721,10.739701 C 56.520212,8.5685899 61.220699,1.3579337 65.008418,1.4134271 C 71.889436,1.5172832 83.511202,31.129589 88.946059,34.460427 C 95.635958,38.560436 119.92387,41.46414 124.34296,44.969282"
         style="fill:none;fill-opacity:1;fill-rule:evenodd;stroke:url(#linearGradient3501);stroke-width:0.50672567;stroke-linecap:butt;stroke-linejoin:miter;stroke-miterlimit:4;stroke-dasharray:none;stroke-opacity:0.5813008" />
      <path
         style="fill:none;fill-opacity:1;fill-rule:evenodd;stroke:url(#linearGradient3503);stroke-width:1;stroke-linecap:round;stroke-linejoin:round;stroke-miterlimit:4;stroke-dasharray:none;stroke-opacity:0.43089432"
         d="M 55.236135,11.274949 C 56.489626,9.1038383 61.236542,1.57297 65.023711,1.6581121 C 71.830955,1.8111507 83.271335,31.483209 88.869595,34.705112 C 95.670099,38.618929 119.98852,41.765855 124.40761,45.270997"
         id="path3634"
         sodipodi:nodetypes="csss" />
      <path
         sodipodi:nodetypes="csss"
         id="path3636"
         d="M 55.205632,12.312054 C 56.459123,10.140944 61.420826,2.0361374 65.023711,2.1461616 C 71.282863,2.3391656 83.42385,32.459308 88.778086,35.193162 C 95.766183,38.761259 121.08663,42.680948 124.71264,46.094581"
         style="fill:none;fill-opacity:1;fill-rule:evenodd;stroke:url(#linearGradient3505);stroke-width:2;stroke-linecap:round;stroke-linejoin:round;stroke-miterlimit:4;stroke-dasharray:none;stroke-opacity:0.43089432" />
      <path
         transform="matrix(-1.742936,-1.063485,-0.470527,1.244278,191.1539,-3.699137)"
         d="M 25.298673 59.379417 A 2.1082227 1.9842097 0 1 1  21.082228,59.379417 A 2.1082227 1.9842097 0 1 1  25.298673 59.379417 z"
         sodipodi:ry="1.9842097"
         sodipodi:rx="2.1082227"
         sodipodi:cy="59.379417"
         sodipodi:cx="23.190451"
         id="path11160"
         style="opacity:0.70232556;fill:url(#radialGradient3507);fill-opacity:1;fill-rule:nonzero;stroke:none;stroke-width:0.89999998;stroke-linecap:round;stroke-linejoin:round;stroke-miterlimit:4;stroke-dasharray:none;stroke-dashoffset:4;stroke-opacity:1"
         sodipodi:type="arc" />
      <path
         id="path3718"
         d="M 64.8125,10.15625 C 64.576492,10.314406 63.313255,10.966975 61.84375,12.71875 C 60.102119,14.794928 58.148874,17.931415 56.1875,21.25 C 54.226123,24.568584 52.253305,28.097951 50.34375,31.15625 C 48.434193,34.21455 46.808554,36.749206 44.28125,38.53125 C 41.753946,40.313295 38.771972,41.009688 35.25,41.78125 C 31.728028,42.55281 27.753292,43.204545 23.96875,43.9375 C 20.184208,44.670458 16.571749,45.463025 14.03125,46.40625 C 11.848007,47.216834 10.828455,48.199264 10.625,48.34375 C 10.62496,48.346283 10.625145,48.371753 10.625,48.375 C 10.695609,48.571986 10.868176,49.989276 12.125,52 C 13.561369,54.297967 15.949938,57.140373 18.5,60.03125 C 20.422509,62.210702 22.440722,64.427292 24.3125,66.5625 C 47.187815,68.967477 71.532076,77.450485 95.75,81.53125 C 95.830132,80.186335 96.067405,78.894893 96.5,77.625 C 97.497182,74.697786 99.510418,72.413122 101.90625,69.71875 C 104.30206,67.024383 107.11905,64.161224 109.75,61.34375 C 112.38092,58.526279 114.78037,55.725104 116.28125,53.46875 C 117.57108,51.529696 117.85422,50.140276 117.9375,49.90625 C 117.93747,49.903618 117.93766,49.878251 117.9375,49.875 C 117.73626,49.725328 116.7219,48.747109 114.5625,47.875 C 112.04974,46.860181 108.481,45.933629 104.71875,45.09375 C 100.95649,44.253869 96.998705,43.464779 93.5,42.59375 C 90.001302,41.722719 87.038305,40.977926 84.5625,39.125 C 82.0867,37.272072 80.540899,34.67367 78.71875,31.5625 C 76.8966,28.451331 75.054073,24.872818 73.1875,21.5 C 71.320931,18.127181 69.432115,14.937187 67.75,12.8125 C 66.278149,10.953399 64.977414,10.290268 64.8125,10.15625 z "
         style="opacity:1;fill:url(#linearGradient3509);fill-opacity:1;fill-rule:nonzero;stroke:none;stroke-width:6.80299997;stroke-linecap:round;stroke-linejoin:round;stroke-miterlimit:4;stroke-dasharray:none;stroke-dashoffset:4;stroke-opacity:1" />
      <path
         id="path3736"
         d="M 64.8125,10.15625 C 64.576492,10.314406 63.313255,10.966975 61.84375,12.71875 C 60.102119,14.794928 58.148874,17.931415 56.1875,21.25 C 54.226123,24.568584 52.253305,28.097951 50.34375,31.15625 C 48.434193,34.21455 46.808554,36.749206 44.28125,38.53125 C 41.753946,40.313295 38.771972,41.009688 35.25,41.78125 C 31.728028,42.55281 27.753292,43.204545 23.96875,43.9375 C 20.184208,44.670458 16.571749,45.463025 14.03125,46.40625 C 11.848007,47.216834 10.828455,48.199264 10.625,48.34375 C 10.62496,48.346283 10.625145,48.371753 10.625,48.375 C 10.695609,48.571986 10.868176,49.989276 12.125,52 C 13.561369,54.297967 15.949938,57.140373 18.5,60.03125 C 20.422509,62.210702 22.440722,64.427292 24.3125,66.5625 C 25.752576,66.713901 27.204929,66.896788 28.65625,67.09375 C 42.328845,56.623879 60.733777,43.188439 78.53125,31.25 C 76.771363,28.21678 74.98888,24.755017 73.1875,21.5 C 71.320931,18.127181 69.432115,14.937187 67.75,12.8125 C 66.278149,10.953399 64.977414,10.290268 64.8125,10.15625 z M 99.34375,43.90625 C 86.79565,53.381359 75.792347,63.914843 66.25,75.09375 C 76.032927,77.504442 85.901575,79.871772 95.75,81.53125 C 95.830132,80.186335 96.067405,78.894893 96.5,77.625 C 97.497182,74.697786 99.510418,72.413122 101.90625,69.71875 C 104.30206,67.024383 107.11905,64.161224 109.75,61.34375 C 112.38092,58.526279 114.78037,55.725104 116.28125,53.46875 C 117.57108,51.529696 117.85422,50.140276 117.9375,49.90625 C 117.93747,49.903618 117.93766,49.878251 117.9375,49.875 C 117.73626,49.725328 116.7219,48.747109 114.5625,47.875 C 112.04974,46.860181 108.481,45.933629 104.71875,45.09375 C 102.94925,44.698729 101.13165,44.292609 99.34375,43.90625 z "
         style="opacity:0.41393445;fill:url(#linearGradient3511);fill-opacity:1;fill-rule:nonzero;stroke:none;stroke-width:6.80299997;stroke-linecap:round;stroke-linejoin:round;stroke-miterlimit:4;stroke-dasharray:none;stroke-dashoffset:4;stroke-opacity:1" />
      <path
         sodipodi:nodetypes="csssssssssscsscccssssssssc"
         style="opacity:0.34836067;fill:url(#linearGradient3513);fill-opacity:1;fill-rule:nonzero;stroke:none;stroke-width:6.80299997;stroke-linecap:round;stroke-linejoin:round;stroke-miterlimit:4;stroke-dasharray:none;stroke-dashoffset:4;stroke-opacity:1"
         d="M 64.8125,10.15625 C 64.576492,10.314406 63.313255,10.966975 61.84375,12.71875 C 60.102119,14.794928 58.148874,17.931415 56.1875,21.25 C 54.226123,24.568584 52.253305,28.097951 50.34375,31.15625 C 48.434193,34.21455 46.808554,36.749206 44.28125,38.53125 C 41.753946,40.313295 38.771972,41.009688 35.25,41.78125 C 31.728028,42.55281 27.753292,43.204545 23.96875,43.9375 C 20.184208,44.670458 16.571749,45.463025 14.03125,46.40625 C 11.848007,47.216834 10.828455,48.199264 10.625,48.34375 C 10.62496,48.346283 10.625145,48.371753 10.625,48.375 C 10.695609,48.571986 10.868176,49.989276 12.125,52 C 13.561369,54.297967 60.733777,43.188439 78.53125,31.25 C 76.771363,28.21678 74.98888,24.755017 73.1875,21.5 C 71.320931,18.127181 69.432115,14.937187 67.75,12.8125 C 66.278149,10.953399 64.977414,10.290268 64.8125,10.15625 z M 99.34375,43.90625 C 68.470207,67.487324 85.901575,79.871772 95.75,81.53125 C 95.830132,80.186335 96.067405,78.894893 96.5,77.625 C 97.497182,74.697786 99.510418,72.413122 101.90625,69.71875 C 104.30206,67.024383 107.11905,64.161224 109.75,61.34375 C 112.38092,58.526279 114.78037,55.725104 116.28125,53.46875 C 117.57108,51.529696 117.85422,50.140276 117.9375,49.90625 C 117.93747,49.903618 117.93766,49.878251 117.9375,49.875 C 117.73626,49.725328 116.7219,48.747109 114.5625,47.875 C 112.04974,46.860181 108.481,45.933629 104.71875,45.09375 C 102.94925,44.698729 101.13165,44.292609 99.34375,43.90625 z "
         id="path3741" />
      <path
         transform="matrix(0.126835,-5.623734e-2,-3.870485e-2,-9.211943e-2,44.81196,106.2565)"
         d="M 129.85647 -45.41592 A 124.10334 11.780229 0 1 1  -118.35021,-45.41592 A 124.10334 11.780229 0 1 1  129.85647 -45.41592 z"
         sodipodi:ry="11.780229"
         sodipodi:rx="124.10334"
         sodipodi:cy="-45.41592"
         sodipodi:cx="5.7531347"
         id="path3745"
         style="opacity:0.35655739;fill:url(#radialGradient3515);fill-opacity:1;fill-rule:nonzero;stroke:none;stroke-width:2;stroke-linecap:round;stroke-linejoin:round;stroke-miterlimit:4;stroke-dasharray:none;stroke-dashoffset:4;stroke-opacity:0.43089432"
         sodipodi:type="arc" />
      <path
         sodipodi:type="arc"
         style="opacity:0.49590167;fill:url(#radialGradient3517);fill-opacity:1;fill-rule:nonzero;stroke:none;stroke-width:2;stroke-linecap:round;stroke-linejoin:round;stroke-miterlimit:4;stroke-dasharray:none;stroke-dashoffset:4;stroke-opacity:0.43089432"
         id="path3755"
         sodipodi:cx="5.7531347"
         sodipodi:cy="-45.41592"
         sodipodi:rx="124.10334"
         sodipodi:ry="11.780229"
         d="M 129.85647 -45.41592 A 124.10334 11.780229 0 1 1  -118.35021,-45.41592 A 124.10334 11.780229 0 1 1  129.85647 -45.41592 z"
         transform="matrix(-0.126834,-5.702883e-2,3.870485e-2,-9.341592e-2,81.95911,106.3126)" />
      <path
         sodipodi:type="arc"
         style="opacity:0.27459017;fill:url(#radialGradient3519);fill-opacity:1;fill-rule:nonzero;stroke:none;stroke-width:2;stroke-linecap:round;stroke-linejoin:round;stroke-miterlimit:4;stroke-dasharray:none;stroke-dashoffset:4;stroke-opacity:0.43089432"
         id="path3759"
         sodipodi:cx="5.7531347"
         sodipodi:cy="-45.41592"
         sodipodi:rx="124.10334"
         sodipodi:ry="11.780229"
         d="M 129.85647 -45.41592 A 124.10334 11.780229 0 1 1  -118.35021,-45.41592 A 124.10334 11.780229 0 1 1  129.85647 -45.41592 z"
         transform="matrix(-6.548665e-3,-0.135343,-9.988208e-2,2.696531e-3,91.9485,98.93228)" />
      <path
         id="path3308"
         d="M 126.314,45.945281 C 127.57715,54.014451 105.05512,70.888621 102.47025,78.476531 C 99.826558,86.237151 107.76438,114.43949 101.06401,119.16403 C 94.363618,123.88859 70.449248,106.96767 62.251508,106.85153 C 54.053768,106.73539 29.690348,122.98275 23.126508,118.07028 C 22.815738,117.8377 22.558998,117.52665 22.314008,117.19528 C 22.708398,118.50348 23.279848,119.53038 24.126508,120.16403 C 30.690348,125.0765 55.053768,108.82913 63.251508,108.94528 C 71.449248,109.06142 95.363618,126.01358 102.064,121.28903 C 108.76438,116.56449 100.82656,88.362141 103.47025,80.601531 C 106.11395,72.840911 129.61178,55.340191 127.189,47.507781 C 127.02007,46.961651 126.72727,46.430131 126.314,45.945281 z M 1.5015079,49.851531 C 4.5831579,57.838661 18.613888,70.110761 22.845258,77.320281 C 20.896748,71.159061 6.3960679,58.682221 1.5015079,49.851531 z "
         style="opacity:0.17000002;fill:#2e3436;fill-opacity:1;fill-rule:nonzero;stroke:none;stroke-width:14.80892944;stroke-linecap:round;stroke-linejoin:round;stroke-miterlimit:4;stroke-dasharray:none;stroke-dashoffset:4;stroke-opacity:1" />
      <path
         id="path3303"
         d="M 127.1265,47.382781 C 127.77543,55.569451 105.80307,72.111371 103.2515,79.601531 C 100.60781,87.362151 108.54563,115.56449 101.84525,120.28903 C 95.144868,125.01357 71.261748,108.06142 63.064008,107.94528 C 54.866278,107.82913 30.471598,124.10775 23.907758,119.19528 C 22.913828,118.45141 22.292008,117.15904 21.907758,115.50778 C 22.250148,117.65334 22.937778,119.30561 24.126508,120.19528 C 30.690348,125.10775 55.053778,108.82913 63.251508,108.94528 C 71.449248,109.06142 95.363638,126.01357 102.064,121.28903 C 108.76438,116.56449 100.82655,88.362151 103.47025,80.601531 C 106.11395,72.840911 129.61177,55.340181 127.189,47.507781 C 127.17552,47.464201 127.14164,47.425951 127.1265,47.382781 z M 0.93900787,47.757781 C 1.9815279,56.300511 21.645828,72.265141 23.876508,79.476531 C 23.903658,79.564291 23.914628,79.665031 23.939008,79.757781 C 23.870988,79.288551 23.775168,78.856101 23.657758,78.476531 C 21.511968,71.539581 3.2557579,56.495971 0.93900787,47.757781 z "
         style="opacity:0.17000002;fill:#2e3436;fill-opacity:1;fill-rule:nonzero;stroke:none;stroke-width:14.80892944;stroke-linecap:round;stroke-linejoin:round;stroke-miterlimit:4;stroke-dasharray:none;stroke-dashoffset:4;stroke-opacity:1" />
      <path
         sodipodi:nodetypes="ccccc"
         id="path3763"
         d="M 25.088207,80.21837 C 25.534474,90.747814 22.054583,105.95279 22.237274,111.46459 L 24.632057,111.69267 C 26.600057,101.69251 28.017156,91.508728 28.167214,80.902594 L 25.088207,80.21837 z "
         style="opacity:0.55327866;fill:url(#radialGradient3521);fill-opacity:1;fill-rule:evenodd;stroke:none;stroke-width:1px;stroke-linecap:butt;stroke-linejoin:miter;stroke-opacity:1" />
      <path
         id="path3296"
         d="M 0.89521787,47.070281 C 0.89114787,55.417331 21.603498,72.067851 23.895208,79.476531 C 24.122348,80.210811 24.248638,81.111361 24.301458,82.164031 C 24.258118,80.995191 24.141798,79.961201 23.895208,79.164031 C 21.629398,71.839061 1.3489179,55.506151 0.89521787,47.070281 z M 127.36395,48.789031 C 126.76815,57.193121 105.96742,73.013441 103.48895,80.289031 C 103.13757,81.320501 102.96318,82.732101 102.92645,84.382781 C 102.97549,82.859581 103.15849,81.571601 103.48895,80.601531 C 105.99802,73.236121 127.27213,57.108781 127.36395,48.789031 z M 63.270208,108.63278 C 55.072468,108.51664 30.709048,124.79525 24.145208,119.88278 C 22.709368,118.80818 21.987678,116.61813 21.738958,113.78903 C 21.963318,116.76637 22.658218,119.08239 24.145208,120.19528 C 30.709048,125.10775 55.072468,108.82913 63.270208,108.94528 C 71.467938,109.06142 95.382328,126.01357 102.0827,121.28903 C 103.80587,120.07399 104.52313,117.30046 104.73895,113.72653 C 104.49958,117.15646 103.75779,119.79539 102.0827,120.97653 C 95.382328,125.70107 71.467938,108.74892 63.270208,108.63278 z "
         style="opacity:0.62000002;fill:#2e3436;fill-opacity:1;fill-rule:nonzero;stroke:none;stroke-width:14.80892944;stroke-linecap:round;stroke-linejoin:round;stroke-miterlimit:4;stroke-dasharray:none;stroke-dashoffset:4;stroke-opacity:1" />
    </g>
  </g>
</svg>
